<svg xmlns="http://www.w3.org/2000/svg" xmlns:xlink="http://www.w3.org/1999/xlink" width="1430" height="892.573" viewBox="0 0 1430 892.573">
  <defs>
    <linearGradient id="linear-gradient" y1="0.5" x2="1" y2="0.5" gradientUnits="objectBoundingBox">
      <stop offset="0" stop-color="#ffb115"/>
      <stop offset="1" stop-color="#ff55d9"/>
    </linearGradient>
    <linearGradient id="linear-gradient-2" y1="0.5" x2="1" y2="0.5" gradientUnits="objectBoundingBox">
      <stop offset="0" stop-color="#2a2760"/>
      <stop offset="0.417" stop-color="#2d2e6f"/>
      <stop offset="1" stop-color="#333b8c"/>
    </linearGradient>
  </defs>
  <g id="Grupo_10554" data-name="Grupo 10554" transform="translate(-40 -310.181)">
    <g id="Grupo_10049" data-name="Grupo 10049" transform="translate(40 310.181)">
      <path id="Trazado_5649" data-name="Trazado 5649" d="M704.895,172.736s-258.1-17.109-340.36,168.682S156.075,436.762,92.164,563.967s81.153,227.959,81.153,227.959H1468.439s7.739-215.349-188.551-252.734-114.333-192.4-215.353-263.843S784.279,170.191,704.895,172.736Z" transform="translate(-51.61 94.583)" fill="#e5e7f9"/>
      <g id="Grupo_10040" data-name="Grupo 10040" transform="translate(491.226 711.379)">
        <path id="Trazado_5650" data-name="Trazado 5650" d="M316.079,466.434s-6.782-14.031-24.118-32.12-19.6-56.28,0-59.042,20.349,57.534,32.409,57.534-9.043-43.717,11.306-42.962,17.336,44.47,16.581,57.282,14.322-3.646,15.83-26.319,15.828-19.846,21.857-12.214-5.277,48.509-7.538,63.871,27.134-23.077,33.917-9.51-29.67,61.866-51.527,63.371-63.037-16.264-69.822-25.5,4.524-12.248,25.626-4.711,14.322-8.29-6.782-13.567-30.9-14.405-30.9-25.668S316.079,466.434,316.079,466.434Z" transform="translate(-278.098 -351.196)" fill="#c0d8fb"/>
        <g id="Grupo_10039" data-name="Grupo 10039" transform="translate(277.662 89.18)">
          <path id="Trazado_5651" data-name="Trazado 5651" d="M398.335,475.285H594.3S589.78,454,576.213,447.22s-22.613-5.277-22.613-5.277-9.8-21.1-32.409-27.134-39.948,4.521-45.223,14.32c0,0-13.944-10.928-31.279-3.766s-24.121,19.68-22.236,32.074C422.453,457.436,405.5,453.249,398.335,475.285Z" transform="translate(-398.335 -390.804)" fill="#c0d8fb"/>
          <path id="Trazado_5652" data-name="Trazado 5652" d="M455.745,446.908s-10.135-13.641-1.96-28.026a30.579,30.579,0,0,1,22.559-15.47S485.826,431.777,455.745,446.908Z" transform="translate(-329.907 -403.412)" fill="#c0d8fb"/>
          <path id="Trazado_5653" data-name="Trazado 5653" d="M459.559,435.67s-2.268-11.267,6.879-17.712A20.677,20.677,0,0,1,484.7,415S482.324,435.084,459.559,435.67Z" transform="translate(-318.501 -389.475)" fill="#c0d8fb"/>
          <path id="Trazado_5654" data-name="Trazado 5654" d="M436.609,439.365s-11.218,2.5-17.848-6.514a20.682,20.682,0,0,1-3.332-18.2S435.558,416.618,436.609,439.365Z" transform="translate(-377.029 -388.694)" fill="#c0d8fb"/>
        </g>
        <rect id="Rectángulo_2454" data-name="Rectángulo 2454" width="274.484" height="173.661" rx="22.603" transform="translate(496.886 0)" fill="#c0d8fb"/>
        <path id="Trazado_5655" data-name="Trazado 5655" d="M321.347,499.554S307.2,460.723,314.9,447.911s19.176,7.164,19.246,24.5,5.388-53.481,27.711-55.021.451,21.594,6,35.046,35.36-65.055,51.735-56.208-1.54,39.858-11.546,51.68,28.481-3.972,30.79,9.311-33.87,13.433-35.408,22.6,23.093,6.445,16.165,19.735Z" transform="translate(-232.917 -324.547)" fill="#c0d8fb"/>
      </g>
      <g id="Grupo_10041" data-name="Grupo 10041" transform="translate(1012.925 331.014)">
        <path id="Trazado_5656" data-name="Trazado 5656" d="M560.358,376.713l3.191,13.036,17.029,109.089h19.158s-2.129-92.06-13.835-125.584Z" transform="translate(-430.237 26.647)" fill="#ffb98a"/>
        <path id="Trazado_5657" data-name="Trazado 5657" d="M559.74,374.867S556.015,476.5,549.63,496.726H529.941l3.191-121.859Z" transform="translate(-470.061 28.759)" fill="#ffb98a"/>
        <path id="Trazado_5658" data-name="Trazado 5658" d="M545.8,420.665l24.961,2.87s-2.117,13.288-3.676,22.829c0,0,1.536,17.248,1.173,21.232,0,0-40.422,3.616-48.618,1.293s3.058-7.618,12.524-13.17a86.353,86.353,0,0,0,14.662-10.666S546.2,438.227,545.8,420.665Z" transform="translate(-487.254 88.722)" fill="#cf4339"/>
        <path id="Trazado_5659" data-name="Trazado 5659" d="M582.729,421.068H607.1s.495,15.228-1.064,24.77c0,0,3.819,16.745,3.459,20.728,0,0-42.708,4.12-50.9,1.8s3.057-7.618,12.523-13.17a86.338,86.338,0,0,0,14.661-10.667S583.129,438.63,582.729,421.068Z" transform="translate(-436.266 89.25)" fill="#cf4339"/>
        <path id="Trazado_5660" data-name="Trazado 5660" d="M570.926,236.3c-12.23,1.122-44.158,70.3-48.945,95.046s11.175,43.9,11.175,43.9l13.967-12.77-4.787-29.134,28.591-52.682S581.972,235.29,570.926,236.3Z" transform="translate(-481.657 -152.683)" fill="#71abff"/>
        <path id="Trazado_5661" data-name="Trazado 5661" d="M505.022,229.108l4.539,48.323,17.883-5.055L523.2,225.547Z" transform="translate(-502.687 -166.745)" fill="#002767"/>
        <path id="Trazado_5662" data-name="Trazado 5662" d="M585.532,231.444s4.789,0,20.753,10.775,3.99,97.78,3.99,97.78l4.312,47.493H535.644l6.785-49.887s-5.586-59.467,0-80.62S580.6,229.864,585.532,231.444Z" transform="translate(-462.595 -159.337)" fill="#71abff"/>
        <path id="Trazado_5663" data-name="Trazado 5663" d="M586.371,215.252s0-10.777-8.38-13.438-31.794.4-36.184-1.464-5.189,6.519,2.926,9.447c0,0-8.381.665-6.785,3.991s6.254,3.859,6.254,3.859.309,6.2,2.946,7.288,32.578,30.319,32.578,30.319,15.294-23.506,13.165-32.154S586.371,215.252,586.371,215.252Z" transform="translate(-459.843 -200.083)" fill="#002767"/>
        <path id="Trazado_5664" data-name="Trazado 5664" d="M550.431,233.528a50.576,50.576,0,0,1-4.339,24.76c-2.134,4.856,5.988,4.843,17.162,3.762s16.761-3.025,14.634-6.7-11.2-35.147-11.2-35.147S550.89,229.614,550.431,233.528Z" transform="translate(-449.363 -173.744)" fill="#ea9c68"/>
        <path id="Trazado_5665" data-name="Trazado 5665" d="M551.7,206.185s-8.383,1.2-9.978,15.567,2.395,33.524,9.978,33.524,22.349-8.78,22.349-24.545S564.067,202.594,551.7,206.185Z" transform="translate(-455.098 -192.913)" fill="#ffb98a"/>
        <path id="Trazado_5666" data-name="Trazado 5666" d="M555.2,218.266s1.861-5.854,6.651-5.854,1.863,13.17-2.526,16.1-5.588,2.926-5.588,2.926Z" transform="translate(-438.911 -183.942)" fill="#ffb98a"/>
        <path id="Trazado_5667" data-name="Trazado 5667" d="M629.66,235.293l-47.045,79.534-57.252-50.689-11.84,12.65s43.082,69.031,74.421,69.831S646.023,264.8,646.023,264.8,656.8,239.706,629.66,235.293Z" transform="translate(-491.557 -153.984)" fill="#71abff"/>
        <path id="Trazado_5668" data-name="Trazado 5668" d="M536.383,264.026l-3.175-3.376s-.3-13.7-2.681-16.973-1.871-5.695-4.549-5.842.5,5.388.025,9.3c-.291,2.406-.836,2.944-.836,2.944s-19.8-6.4-20.846-4.02.6,4.466,4.319,6.254c0,0-2.534,3.425,1.487,7a4.445,4.445,0,0,0,1.192,4.716,3.983,3.983,0,0,0,2.383,3.325c2.381,1.192,10.72,1.787,10.72,1.787l3.127,4.328Z" transform="translate(-504.011 -150.661)" fill="#ffb98a"/>
        <path id="Trazado_5669" data-name="Trazado 5669" d="M537.885,289.607l8.782,25.543-4.39,14.1-15.964-23.813S525.913,292.8,537.885,289.607Z" transform="translate(-474.813 -82.871)" fill="#ffb98a"/>
        <path id="Trazado_5670" data-name="Trazado 5670" d="M624.466,302.05l23.525,305.734L617.969,605.8l-34.93-250.274-3.834-.605-22.433,252.86L528.1,604.648s3.378-263.086,18.183-308.186Z" transform="translate(-472.473 -73.896)" fill="#002767"/>
      </g>
      <g id="Grupo_10042" data-name="Grupo 10042" transform="translate(230.303 441.962)">
        <path id="Rectángulo_2455" data-name="Rectángulo 2455" d="M11.181,0H173.025a11.181,11.181,0,0,1,11.181,11.181V178.3a0,0,0,0,1,0,0H0a0,0,0,0,1,0,0V11.181A11.181,11.181,0,0,1,11.181,0Z" transform="translate(0 269.418)" fill="#c0d8fb"/>
        <path id="Trazado_5671" data-name="Trazado 5671" d="M224.468,287.62,250.7,362.894l38.413-22.518,5.9,15.821s-48.165,44.872-57.5,28.4-18.357-35.129-18.357-35.129Z" transform="translate(-94.341 -196.42)" fill="#71abff"/>
        <path id="Trazado_5672" data-name="Trazado 5672" d="M238.833,422.766l-9.057,35.38H211.554l5.873-39.932Z" transform="translate(-104.302 -25.433)" fill="#ffb98a"/>
        <path id="Trazado_5673" data-name="Trazado 5673" d="M233.81,431.671s23.4,21.8,23.4,26.407-37.267,1.162-44.156,0,1.815-27.919,1.815-27.919Z" transform="translate(-105.806 -9.796)" fill="#cf4339"/>
        <path id="Trazado_5674" data-name="Trazado 5674" d="M251.979,292.121l-12.9,32.933,24.426-6.587,8.508-26.347Z" transform="translate(-68.262 -190.527)" fill="#cf4339"/>
        <path id="Trazado_5675" data-name="Trazado 5675" d="M254.028,418.215l5.215,27.582,18.113-2.47-4.94-25.112Z" transform="translate(-48.69 -25.433)" fill="#ffb98a"/>
        <path id="Trazado_5676" data-name="Trazado 5676" d="M255.751,430.861s1.51,23.829,1.51,25.476,16.742,1.647,22.5,1.1,18.114,3.127,30.739.328-18.407-18.25-37.431-33.134Z" transform="translate(-46.434 -17.037)" fill="#a32430"/>
        <path id="Trazado_5677" data-name="Trazado 5677" d="M235.584,288.446s-3.9,14.41,5.443,22.656-15.491,6.231-26.263,1.981-16.618-9.041-12.606-10.8c11.122-4.886,21.657-36.722,21.657-36.722S236.24,284.435,235.584,288.446Z" transform="translate(-118.267 -225.304)" fill="#ea9c68"/>
        <path id="Trazado_5678" data-name="Trazado 5678" d="M240.623,257.4s7.972,3.57,5.471,18.269-11.9,32.561-19.421,30.406-19.666-15.056-15.186-30.69S229.376,250.327,240.623,257.4Z" transform="translate(-105.654 -239.109)" fill="#ffb98a"/>
        <path id="Trazado_5679" data-name="Trazado 5679" d="M218.121,263.779s-.908-5.214-5.806-4.8-6.27,17.366,2.238,16.5S218.121,263.779,218.121,263.779Z" transform="translate(-108.427 -233.953)" fill="#ffb98a"/>
        <path id="Trazado_5680" data-name="Trazado 5680" d="M239.517,257.486s-.958,7.468-5.983,10.341S226,270.46,226,270.46s-1.2,4.785-2.993,4.425c0,0,.48-7.916-1.554-8.69s-4.785-.841-5.623,6.438,3.688,7.177,3.688,7.177a13.525,13.525,0,0,1-3.362,9.179,27.961,27.961,0,0,1-8.461-31.5S228.391,255.639,239.517,257.486Z" transform="translate(-111.709 -236.949)" fill="#002767"/>
        <path id="Trazado_5681" data-name="Trazado 5681" d="M214.186,257.864s30.462,15.027,41.579,13.172S243,257.864,243,257.864Z" transform="translate(-100.855 -235.379)" fill="#002767"/>
        <path id="Trazado_5682" data-name="Trazado 5682" d="M253.472,268.319s3.619-13.385-3.8-17.726-21.885-1.628-21.885-1.628-22.072-3.616-21.165,19.354c0,0,26.049,7.6,46.488,2.533Z" transform="translate(-110.792 -248.127)" fill="url(#linear-gradient)"/>
        <path id="Trazado_5683" data-name="Trazado 5683" d="M226.124,279.014s6.727,18.574,17.611,19.338,10.131-11.558,10.131-11.558,10.244,4.924,15.186,18.92-8.478,82.333-8.478,82.333v35.815l-68.521.413s-8.63-78.629-2.044-108.682S217.367,279.894,226.124,279.014Z" transform="translate(-135.754 -207.688)" fill="#71abff"/>
        <path id="Trazado_5684" data-name="Trazado 5684" d="M208.292,291.345l34.981,83.908,56.153-40.618,7.685,7.921s-41.119,55.2-69.41,57.947-45.364-64.769-47.8-91.115c-.914-9.865.975-15.974,3.7-19.756A8.478,8.478,0,0,1,208.292,291.345Z" transform="translate(-132.963 -198.386)" fill="#71abff"/>
        <path id="Trazado_5685" data-name="Trazado 5685" d="M237.7,318.913s4.459-10.5,6.45-13.38,3.637-7.411,6.311-7.411-4.321,12.761-4.321,12.761,18.731-1.439,21.818-2.367,1.233,3.6-2.06,4.632a4.029,4.029,0,0,1-2.263,4.117S262.2,321.381,259.93,322c0,0-1.233,2.263-4.94,3.087s-10.84,3.321-10.84,3.321l-7.685-7.919Z" transform="translate(-71.685 -182.67)" fill="#ffb98a"/>
        <path id="Trazado_5686" data-name="Trazado 5686" d="M363.257,523.924S350.976,384.572,334.164,367.9c-8.54-8.473-22.573-8.852-22.573-8.852l0,.023-51.758-5.983-.418-12.154L190.9,343.2s-9.057,34.99,7.41,54.751c14.02,16.825,89.684,7.988,111.862,4.99,5.318,28.384,10.426,78.539,28.1,120.981Z" transform="translate(-134.59 -126.614)" fill="#001e49"/>
        <path id="Trazado_5687" data-name="Trazado 5687" d="M260.643,340.936,246.485,364.2s27.866,8.415,46.922,26.347-19.761,142.437-19.761,142.437l-28.4-4.526s.751-79.454,15.4-104.976c0,0-94.979,7.667-68.5-80.276Z" transform="translate(-135.823 -126.614)" fill="#002767"/>
        <path id="Trazado_5688" data-name="Trazado 5688" d="M273.313,316.314c.55-3.843-1.783-3.889-1.783-3.889.386-3.118-.621-4.189-1.573-4.529a11.2,11.2,0,0,0,1.023-4.346c-.136-3.7-7.272-3.429-8.1-1.372s3.157,2.471,5.078,1.785c0,0-2.3,3.462-10.618,9.274h0l-.446.113c.452-3.159,1.018-9.092-.875-10.487-2.607-1.919-1.783,3.706-2.469,7.549-.586,3.277-1.951,5.96-1.238,9.235l-2.538,5.646,4.524,12.128s12.974-7.8,14.482-9.309a50.846,50.846,0,0,0,3.981-5.078C274.837,320.209,273.313,316.314,273.313,316.314Z" transform="translate(-54.253 -179.316)" fill="#ffb98a"/>
      </g>
      <g id="Grupo_10043" data-name="Grupo 10043" transform="translate(1236.989 364.682)">
        <path id="Trazado_5689" data-name="Trazado 5689" d="M620.865,400.824l43.9,84.541,16.908-8.778s-21.282-74.816-37.748-87.734S620.865,400.824,620.865,400.824Z" transform="translate(-575.079 8.533)" fill="#ffb98a"/>
        <path id="Trazado_5690" data-name="Trazado 5690" d="M649.587,434.46s-13.763,22.437-16.5,28.118,7.406,4.311,19.414-3.344,25.751-12.662,25.822-17.315S665.1,423.031,665.1,423.031Z" transform="translate(-559.662 58.152)" fill="#001e49"/>
        <path id="Trazado_5691" data-name="Trazado 5691" d="M659.037,236.269s-.144-7.651,5.773-7.939a9.4,9.4,0,0,1,8.517,4.415s-.146,6.7-1.3,8-5.485,5.63-5.485,5.63l-4.618,1.309s-4.244.878-6.09,0-3.579-1.887-3.579-1.887Z" transform="translate(-533.982 -196.786)" fill="#ffb98a"/>
        <path id="Trazado_5692" data-name="Trazado 5692" d="M649.943,395.627v95.258h19.052s15.588-76.206,6.928-95.258S649.943,395.627,649.943,395.627Z" transform="translate(-537.008 11.185)" fill="#ffb98a"/>
        <path id="Trazado_5693" data-name="Trazado 5693" d="M668.163,431.853s-25.329,11.214-30.372,15,7.358,9.593,21.546,8.332,28.686.631,30.893-3.469-3.541-20.25-3.541-20.25Z" transform="translate(-554.419 69.19)" fill="#002767"/>
        <path id="Trazado_5694" data-name="Trazado 5694" d="M614.823,236.7,630.778,264.6l-14.043,8.278-15.7-28.139Z" transform="translate(-601.038 -185.807)" fill="#cf4339"/>
        <path id="Trazado_5695" data-name="Trazado 5695" d="M611.953,252.366s21.887,25.026,34.328,50.525l24.922-49.16,9.468,30.051S662.552,317.4,653.633,326.3c-6.277,6.258-16.3-.473-23.841-14.052-8.232-14.819-23.908-53.943-23.908-53.943Z" transform="translate(-594.694 -165.299)" fill="#ffb98a"/>
        <path id="Trazado_5696" data-name="Trazado 5696" d="M703.817,248.643s28.954,12.235,28.954,30.346-16.468,51.6-16.468,51.6a219.257,219.257,0,0,1,19.76,60.928s-25.8,8.233-61.476,7.683-49.675-12.477-49.675-12.477c7.2-39.3,30.464-75.895,30.464-75.895s-10.429-19.211-12.075-40.069S670.3,247.262,670.3,247.262Z" transform="translate(-569.779 -171.981)" fill="#71abff"/>
        <path id="Trazado_5697" data-name="Trazado 5697" d="M656.091,244.745s-.222,14.925-11.475,20.278,13.175,10.258,24.7,9.142,17.292-3.122,15.1-6.912S668.219,236.7,668.219,236.7,656.564,240.706,656.091,244.745Z" transform="translate(-547.767 -185.807)" fill="#ea9c68"/>
        <path id="Trazado_5698" data-name="Trazado 5698" d="M651.988,219.776s-8.646,1.235-10.292,16.054,2.468,34.582,10.292,34.582,23.052-9.057,23.052-25.319S664.749,216.071,651.988,219.776Z" transform="translate(-548.277 -208.813)" fill="#ffb98a"/>
        <path id="Trazado_5699" data-name="Trazado 5699" d="M610.964,273.747s-8.027-18.287-8.3-19.934.891-6.45,4.152-8.782,5.455-4.118,5.866-2.332-5.9,6.586-5.9,6.586l.882,1.508s9.272-5.076,11.332-4.254-7.135,5.628-7.135,5.628,8.232-3.843,9.057-1.921-8.1,5.076-8.1,5.076,7.653-.136,8.149,1.235-6.5,2.157-6.5,2.157,3.115,5.822,2.656,9.722S610.964,273.747,610.964,273.747Z" transform="translate(-598.963 -178.907)" fill="#ffb98a"/>
        <path id="Trazado_5700" data-name="Trazado 5700" d="M664.332,291.635c-51.3,96.293-19.483,162.828-51.3,202.52-19.228,23.989-8.963,39.6,20.4,33.457s42.057,13.1,63.806,13.867S723.6,529.164,742.079,530.7s38.489.769,47.726-12.318-31.643-64.127-22.141-106.227c13.29-58.887-14.6-120.524-14.6-120.524C695.967,305.756,664.332,291.635,664.332,291.635Z" transform="translate(-598.163 -113.884)" fill="#002767"/>
        <path id="Trazado_5701" data-name="Trazado 5701" d="M726.562,252.994l-47.509,58.5L628.63,257.3l-5.771,9.551s35.411,64.817,56.772,64.547c15.948-.2,40.916-32.543,52.548-48.922a20.658,20.658,0,0,0-5.261-29.25C726.8,253.146,726.682,253.07,726.562,252.994Z" transform="translate(-572.469 -164.476)" fill="#ffb98a"/>
        <path id="Trazado_5702" data-name="Trazado 5702" d="M636.721,266.9s-4.944-14.2-7.611-16.816-8.29-3.51-9.736-3.064,3.374,3.658,6.427,4.141c0,0-8.674,1.122-8.674,3.693s1.767,2.053,1.767,2.053-3.213,2.607-.8,4.212c0,0-2.249,2.891,1.125,5.783s3.533.8,3.533.8,4.178,8.032,9.157,8.833S636.721,266.9,636.721,266.9Z" transform="translate(-579.974 -172.443)" fill="#ffb98a"/>
        <path id="Trazado_5703" data-name="Trazado 5703" d="M650.522,219.072s-10.681,3.753-11.258,13.278,13.278,5.773,13.278,5.773,2.332,3.753,8.383,4.907a15.627,15.627,0,0,0,10.957-2.309s.866,10.68,4.33,11.835.866-5.2,7.217-4.907,4.619,12.7-1.443,15.01-8.411,2-8.411,2l-2.683,3.367s2.145,9.995,13.4,8.23,10.969-8.117,16.165-6.385,13.856,1.155,14.433-2.021,5.773,2.021,11.835-3.753,4.907-9.526,0-10.969-6.45-8.083-9.431-10.68-13.084-2.021-13.084-2.021,1.155-5.2-4.907-7.505-6-10.1-14.255-11.258C685.05,221.67,668.419,207.814,650.522,219.072Z" transform="translate(-551.013 -214.663)" fill="#002767"/>
      </g>
      <g id="Grupo_10047" data-name="Grupo 10047" transform="translate(452.328)">
        <rect id="Rectángulo_2456" data-name="Rectángulo 2456" width="33.164" height="184.929" transform="translate(241.943 701.457)" fill="url(#linear-gradient-2)"/>
        <rect id="Rectángulo_2457" data-name="Rectángulo 2457" width="534.024" height="701.457" rx="13.747" fill="url(#linear-gradient-2)"/>
        <rect id="Rectángulo_2458" data-name="Rectángulo 2458" width="476.348" height="645.18" rx="11.004" transform="translate(27.887 28.139)" fill="#c0d8fb"/>
        <g id="Grupo_10045" data-name="Grupo 10045" transform="translate(93.97 139.578)">
          <rect id="Rectángulo_2459" data-name="Rectángulo 2459" width="343.182" height="360.156" rx="13.901" fill="#fff"/>
          <g id="Grupo_10044" data-name="Grupo 10044" transform="translate(16.732 24.321)">
            <path id="Trazado_5704" data-name="Trazado 5704" d="M309.192,127.717v83.054h85.441V127.717Zm74.572,74.211H319.411V136.559h64.353Z" transform="translate(-309.192 -127.717)" fill="#272525"/>
            <rect id="Rectángulo_2460" data-name="Rectángulo 2460" width="43.102" height="48.281" transform="translate(21.17 17.387)" fill="#272525"/>
            <path id="Trazado_5705" data-name="Trazado 5705" d="M404.9,207.373V190.905h18.385V171.812h-20.4v17.5h-38.79v14.638h-12.92v-28H313.9v32.458h35.26v14.638h20.82V208.407H404.9v18.059h20.4V207.373Z" transform="translate(-303.029 -69.983)" fill="#272525"/>
            <path id="Trazado_5706" data-name="Trazado 5706" d="M378.614,213.432V186.7h24.427V158.381H378.614V130.059H351.565v28.321h24.427v17.776H351.565v40.458h27.049V228.07h48.031V213.432Z" transform="translate(-253.713 -124.65)" fill="#272525"/>
            <rect id="Rectángulo_2461" data-name="Rectángulo 2461" width="79.002" height="14.638" transform="translate(56.802 181.066)" fill="#272525"/>
            <rect id="Rectángulo_2462" data-name="Rectángulo 2462" width="12.729" height="11.319" transform="translate(142.402 71.736)" fill="#272525"/>
            <rect id="Rectángulo_2463" data-name="Rectángulo 2463" width="12.729" height="11.319" transform="translate(131.822 13.911)" fill="#272525"/>
            <path id="Trazado_5707" data-name="Trazado 5707" d="M403.986,127.717v83.054h85.441V127.717Zm10.87,8.842h64.353v65.369H414.856Z" transform="translate(-185.079 -127.717)" fill="#272525"/>
            <rect id="Rectángulo_2464" data-name="Rectángulo 2464" width="43.103" height="48.281" transform="translate(283.179 65.667) rotate(180)" fill="#272525"/>
            <path id="Trazado_5708" data-name="Trazado 5708" d="M407.37,207.373V190.905H389.948V171.812h19.336v17.5h36.758v14.638h12.243v-28h35.322v32.458H460.194v14.638H440.464V208.407H407.37v18.059H388.034V207.373Z" transform="translate(-205.964 -69.983)" fill="#272525"/>
            <path id="Trazado_5709" data-name="Trazado 5709" d="M414.131,213.432V186.7H389.7V158.381h24.427V130.059H441.18v28.321H416.753v17.776H441.18v40.458H414.131V228.07H366.1V213.432Z" transform="translate(-234.683 -124.65)" fill="#272525"/>
            <rect id="Rectángulo_2465" data-name="Rectángulo 2465" width="12.729" height="11.319" transform="translate(161.946 83.055) rotate(180)" fill="#272525"/>
            <rect id="Rectángulo_2466" data-name="Rectángulo 2466" width="12.729" height="11.319" transform="translate(172.527 25.229) rotate(180)" fill="#272525"/>
            <rect id="Rectángulo_2467" data-name="Rectángulo 2467" width="12.729" height="11.319" transform="translate(64.526 160.664)" fill="#272525"/>
            <rect id="Rectángulo_2468" data-name="Rectángulo 2468" width="12.729" height="11.319" transform="translate(44.073 171.324)" fill="#272525"/>
            <rect id="Rectángulo_2469" data-name="Rectángulo 2469" width="12.729" height="11.319" transform="translate(44.869 194.713)" fill="#272525"/>
            <rect id="Rectángulo_2470" data-name="Rectángulo 2470" width="12.729" height="11.319" transform="translate(105.231 171.983) rotate(180)" fill="#272525"/>
            <path id="Trazado_5710" data-name="Trazado 5710" d="M489.871,309.839V226.783H404.43v83.056ZM415.3,235.627h64.353v65.367H415.3Z" transform="translate(-184.498 1.989)" fill="#272525"/>
            <rect id="Rectángulo_2471" data-name="Rectángulo 2471" width="43.103" height="48.281" transform="translate(284.204 294.441) rotate(180)" fill="#272525"/>
            <path id="Trazado_5711" data-name="Trazado 5711" d="M394.634,309.839V226.783H309.192v83.056Zm-74.572-74.211h64.353v65.367H320.062Z" transform="translate(-309.192 1.989)" fill="#272525"/>
            <rect id="Rectángulo_2472" data-name="Rectángulo 2472" width="43.102" height="48.281" transform="translate(64.272 294.441) rotate(180)" fill="#272525"/>
            <path id="Trazado_5712" data-name="Trazado 5712" d="M407.37,214.572V231.04H389.948v19.093h19.336v-17.5h36.758V217.993h12.243v28h35.322V213.538H460.194V198.9H440.464v14.638H407.37V195.479H388.034v19.093Z" transform="translate(-205.964 -38.996)" fill="#272525"/>
            <path id="Trazado_5713" data-name="Trazado 5713" d="M414.575,232.6v26.73H390.148v28.321h24.428v28.321h27.048V287.654H417.2V269.878h24.427V229.42H414.575V217.964H366.544V232.6Z" transform="translate(-234.102 -9.557)" fill="#272525"/>
            <rect id="Rectángulo_2473" data-name="Rectángulo 2473" width="12.729" height="11.319" transform="translate(162.971 240.092) rotate(180)" fill="#272525"/>
            <rect id="Rectángulo_2474" data-name="Rectángulo 2474" width="12.729" height="11.319" transform="translate(173.552 297.917) rotate(180)" fill="#272525"/>
            <rect id="Rectángulo_2475" data-name="Rectángulo 2475" width="18.061" height="60.228" transform="translate(132.442 122.444)" fill="#272525"/>
            <rect id="Rectángulo_2476" data-name="Rectángulo 2476" width="14.117" height="21.002" transform="translate(162.971 177.565)" fill="#272525"/>
            <rect id="Rectángulo_2477" data-name="Rectángulo 2477" width="16.945" height="38.743" transform="translate(156.606 117.74)" fill="#272525"/>
            <rect id="Rectángulo_2478" data-name="Rectángulo 2478" width="16.945" height="17.144" transform="translate(168.615 117.74)" fill="#272525"/>
            <path id="Trazado_5714" data-name="Trazado 5714" d="M379.566,277.668v-30.96h14.741V230.423h-13.4V217.479h-14.44v14.272h11.76V245.1h-13.87V228.811H348.275V245.1h15.21v27.874H351.156v16.617h12.329v28.142h27.338V287.981H367.237V277.668Z" transform="translate(-258.021 -10.192)" fill="#272525"/>
            <rect id="Rectángulo_2479" data-name="Rectángulo 2479" width="9.207" height="10.979" transform="translate(170.029 155.345)" fill="#272525"/>
            <rect id="Rectángulo_2480" data-name="Rectángulo 2480" width="17.292" height="65.58" transform="translate(12.524 148.275)" fill="#272525"/>
          </g>
        </g>
        <g id="Grupo_10046" data-name="Grupo 10046" transform="translate(196.144 539.607)">
          <rect id="Rectángulo_2481" data-name="Rectángulo 2481" width="127.184" height="60.461" rx="5.673" transform="translate(0 0)" fill="#71abff"/>
          <text id="scan" transform="translate(35.231 36.185)" fill="#fff" font-size="24" font-family="Teko-Regular, Teko"><tspan x="0" y="0">scan</tspan></text>
        </g>
      </g>
      <g id="Grupo_10048" data-name="Grupo 10048" transform="translate(0 367.498)">
        <path id="Trazado_5715" data-name="Trazado 5715" d="M180.226,238.92l-15.955,27.894,14.043,8.278,15.7-28.139Z" transform="translate(64.096 -185.719)" fill="#002767"/>
        <path id="Trazado_5716" data-name="Trazado 5716" d="M125.034,261.026,94.982,320.306l12.762,13.585L134.5,291.078Z" transform="translate(-26.625 -156.777)" fill="#ffb98a"/>
        <path id="Trazado_5717" data-name="Trazado 5717" d="M89.624,304.874c1.921-3.293,9.627-24.128,27.18-23.453s13.576,56.388,13.576,56.388H123.52s2.058-26.347-1.785-36.775-14.271-9.607-17.839-5.764-14.271,29.914-14.271,29.914l-6.586-4.117Z" transform="translate(-42.263 -130.094)" fill="#002767"/>
        <path id="Trazado_5718" data-name="Trazado 5718" d="M84.652,257.123s43.225,61.34,43.225,81.511c0,0-18.525,3.706-26.76-11.115S79.71,270.709,79.71,270.709Z" transform="translate(-46.62 -161.886)" fill="#ffb98a"/>
        <path id="Trazado_5719" data-name="Trazado 5719" d="M208.637,254.584s-21.888,25.028-34.328,50.525l-24.922-49.16L139.919,286s18.119,33.621,27.037,42.516c6.277,6.258,16.3-.473,23.841-14.05,8.233-14.821,23.908-53.945,23.908-53.945Z" transform="translate(32.211 -165.211)" fill="#ffb98a"/>
        <path id="Trazado_5720" data-name="Trazado 5720" d="M101.965,284.388s-19.174-9.616-20.98-11.371-12.431-1.3-13-3.441,8.078-1.552,12.72-.324c0,0-15.329-7.512-15.322-9.685s14.713,5.549,15.306,5.99a94.7,94.7,0,0,0-10.45-9.863c-4.478-3.457.249-3.626,5.039-.8a37.351,37.351,0,0,1,8.357,7.039s-6.224-9.738-7.353-12.449,2.836-.529,5.452,3,7.3,8.888,7.3,8.888l10.223,2.136s1.122-9.071,3.489-9.438-.351,6.154,1.328,10S105.422,279.908,101.965,284.388Z" transform="translate(-65.381 -173.476)" fill="#ffb98a"/>
        <path id="Trazado_5721" data-name="Trazado 5721" d="M105.236,320.229l35.189,229.493H160.6V480.563l8.646-114.444,51.869,179.487,18.114-2.471-8.233-70.808S227.056,342.172,212.6,304.641Z" transform="translate(-13.199 -99.671)" fill="#002767"/>
        <path id="Trazado_5722" data-name="Trazado 5722" d="M129.294,255.162s-20.858,7.932-20.858,26.047S124.9,332.8,124.9,332.8a219.265,219.265,0,0,0-19.761,60.926s25.8,8.235,61.476,7.685,49.675-12.477,49.675-12.477c-7.2-39.3-30.464-75.895-30.464-75.895s10.429-19.211,12.075-40.068-26.993-23.495-26.993-23.495Z" transform="translate(-13.321 -171.892)" fill="#71abff"/>
        <path id="Trazado_5723" data-name="Trazado 5723" d="M146.56,246.963s.222,14.927,11.475,20.278-13.174,10.26-24.7,9.145-17.29-3.122-15.1-6.914,16.193-30.552,16.193-30.552S146.086,242.927,146.56,246.963Z" transform="translate(3.223 -185.719)" fill="#ea9c68"/>
        <path id="Trazado_5724" data-name="Trazado 5724" d="M145.311,221.995s8.644,1.233,10.29,16.054-2.469,34.579-10.29,34.579-23.054-9.057-23.054-25.317S132.547,218.288,145.311,221.995Z" transform="translate(9.086 -208.724)" fill="#ffb98a"/>
        <path id="Trazado_5725" data-name="Trazado 5725" d="M144.291,228.506a16.642,16.642,0,0,0-14.546,9.84c-4.39,9.879,7.274,20.583,7.274,20.583s-24.289-4.94-23.74,11.528c0,0-18.114,7.136-4.392,18.387,0,0-3.293,7.685,2.743,11.528s12.389-1.921,12.389-1.921,3.529,8.782,12.586,8.233,11.8-16.74,11.8-16.74,3.018-.55,6.861-5.214-2.471-15.645-2.471-15.645-7.136-6.27-3.568-14.937,7.279,1.215,7.279,1.215V242.189s19.892-2.471,26.478-9.332-6.586-7.41-6.586-7.41-2.2-5.214-9.057-8.233S148.134,215.648,144.291,228.506Z" transform="translate(-15.144 -215.882)" fill="#002767"/>
        <path id="Trazado_5726" data-name="Trazado 5726" d="M140.646,410.769v52.282H125.414l-4.94-52.282Z" transform="translate(6.752 39.282)" fill="#ffb98a"/>
        <path id="Trazado_5727" data-name="Trazado 5727" d="M141.093,432.454s-26.52,13.662-30.94,18.883,31.455,2.411,34.413,2.411,11.394.4,12.2-2.411-2.113-16.677-2.113-16.677Z" transform="translate(-7.254 67.673)" fill="#002767"/>
        <path id="Trazado_5728" data-name="Trazado 5728" d="M155.414,410.387l11.938,54.193h16.055l-9.88-56.663Z" transform="translate(52.499 35.547)" fill="#ffb98a"/>
        <path id="Trazado_5729" data-name="Trazado 5729" d="M160.256,435.952s-.822,15.643,0,17.29,40.757,4.288,43.636,2.556-25.917-23.409-26.347-23.961S160.485,430.594,160.256,435.952Z" transform="translate(58.36 66.381)" fill="#002767"/>
        <path id="Trazado_5730" data-name="Trazado 5730" d="M177.639,275.965s8.027-18.287,8.3-19.934-.891-6.45-4.152-8.782-5.455-4.115-5.866-2.332,5.9,6.586,5.9,6.586l-.882,1.51s-9.272-5.078-11.332-4.254,7.136,5.626,7.136,5.626-8.233-3.843-9.055-1.921,8.094,5.078,8.094,5.078-7.653-.136-8.15,1.236,6.5,2.157,6.5,2.157-3.115,5.82-2.653,9.722S177.639,275.965,177.639,275.965Z" transform="translate(68.467 -178.818)" fill="#ffb98a"/>
        <path id="Trazado_5731" data-name="Trazado 5731" d="M83.793,297.035l58.947,20.31s-10.369,63.122-36.99,63.947S68.15,354.945,83.793,297.035Z" transform="translate(-50.703 -109.63)" fill="#002767"/>
      </g>
    </g>
  </g>
</svg>
