<svg xmlns="http://www.w3.org/2000/svg" xmlns:xlink="http://www.w3.org/1999/xlink" width="1470" height="996.785" viewBox="0 0 1470 996.785">
  <defs>
    <linearGradient id="linear-gradient" x1="1.528" y1="-8.119" x2="2.347" y2="-8.119" gradientUnits="objectBoundingBox">
      <stop offset="0" stop-color="#b37cff"/>
      <stop offset="1" stop-color="#f895e7"/>
    </linearGradient>
    <linearGradient id="linear-gradient-2" x1="38.012" y1="-62.831" x2="39.327" y2="-62.831" xlink:href="#linear-gradient"/>
    <linearGradient id="linear-gradient-3" x1="42.515" y1="-65.719" x2="43.356" y2="-65.719" xlink:href="#linear-gradient"/>
    <linearGradient id="linear-gradient-4" x1="1.878" y1="-8.344" x2="2.733" y2="-8.344" xlink:href="#linear-gradient"/>
    <linearGradient id="linear-gradient-5" x1="51.028" y1="-51.226" x2="52.363" y2="-51.226" xlink:href="#linear-gradient"/>
    <linearGradient id="linear-gradient-6" x1="63.367" y1="-56.876" x2="64.26" y2="-56.876" xlink:href="#linear-gradient"/>
    <linearGradient id="linear-gradient-7" x1="2.642" y1="-11.13" x2="3.389" y2="-11.13" xlink:href="#linear-gradient"/>
    <linearGradient id="linear-gradient-8" x1="3.529" y1="-10.189" x2="4.532" y2="-10.189" xlink:href="#linear-gradient"/>
    <linearGradient id="linear-gradient-9" x1="74.104" y1="-57.083" x2="75.571" y2="-57.083" xlink:href="#linear-gradient"/>
    <linearGradient id="linear-gradient-10" x1="-0.056" y1="0.525" x2="0.94" y2="0.525" gradientUnits="objectBoundingBox">
      <stop offset="0" stop-color="#2b3582"/>
      <stop offset="1" stop-color="#150e42"/>
    </linearGradient>
    <linearGradient id="linear-gradient-11" x1="0.882" y1="0.006" x2="-0.598" y2="1.874" gradientUnits="objectBoundingBox">
      <stop offset="0" stop-color="#53d8ff"/>
      <stop offset="1" stop-color="#3840f7"/>
    </linearGradient>
    <linearGradient id="linear-gradient-12" x1="-0.052" y1="0.533" x2="0.944" y2="0.533" xlink:href="#linear-gradient-10"/>
    <linearGradient id="linear-gradient-13" x1="-0.275" y1="0.976" x2="1.332" y2="-0.095" gradientUnits="objectBoundingBox">
      <stop offset="0" stop-color="#f9b776"/>
      <stop offset="1" stop-color="#f47960"/>
    </linearGradient>
    <linearGradient id="linear-gradient-14" x1="-0.983" y1="3.694" x2="5.002" y2="-8.994" xlink:href="#linear-gradient-13"/>
    <linearGradient id="linear-gradient-15" x1="0" y1="0.5" x2="1" y2="0.5" xlink:href="#linear-gradient-13"/>
    <linearGradient id="linear-gradient-16" x1="-16.101" y1="-1.451" x2="-16.943" y2="0.424" xlink:href="#linear-gradient-10"/>
    <linearGradient id="linear-gradient-17" x1="-32.686" y1="-7.332" x2="-33.641" y2="-5.922" xlink:href="#linear-gradient-10"/>
    <linearGradient id="linear-gradient-19" x1="-14.815" y1="-2.838" x2="-17.434" y2="-1.443" xlink:href="#linear-gradient-13"/>
    <linearGradient id="linear-gradient-20" x1="-94.758" y1="-6.938" x2="-108.798" y2="-3.066" xlink:href="#linear-gradient-13"/>
    <linearGradient id="linear-gradient-21" x1="-7.275" y1="3.297" x2="-8.61" y2="1.599" xlink:href="#linear-gradient-13"/>
    <linearGradient id="linear-gradient-22" x1="-3.102" y1="1.004" x2="-1.865" y2="1.004" xlink:href="#linear-gradient-10"/>
    <linearGradient id="linear-gradient-23" x1="-0.184" y1="1.294" x2="0.486" y2="0.516" gradientUnits="objectBoundingBox">
      <stop offset="0" stop-color="#fdf53f"/>
      <stop offset="1" stop-color="#d93c65"/>
    </linearGradient>
    <linearGradient id="linear-gradient-24" x1="0.878" y1="-0.071" x2="-1.173" y2="3.028" xlink:href="#linear-gradient-23"/>
    <linearGradient id="linear-gradient-25" x1="1.304" y1="-0.302" x2="-1.589" y2="2.559" xlink:href="#linear-gradient-23"/>
    <linearGradient id="linear-gradient-28" x1="1.304" y1="-0.302" x2="-1.589" y2="2.559" xlink:href="#linear-gradient-23"/>
    <linearGradient id="linear-gradient-32" x1="-123.56" y1="-0.49" x2="-122.557" y2="-0.49" xlink:href="#linear-gradient-10"/>
    <linearGradient id="linear-gradient-33" x1="-279.18" y1="-19.205" x2="-278.265" y2="-19.205" xlink:href="#linear-gradient-13"/>
    <linearGradient id="linear-gradient-34" x1="-75.62" y1="-4.155" x2="-74.617" y2="-4.155" xlink:href="#linear-gradient-10"/>
    <linearGradient id="linear-gradient-35" x1="-347.935" y1="3.697" x2="-346.751" y2="3.697" xlink:href="#linear-gradient-13"/>
    <linearGradient id="linear-gradient-36" x1="-81.981" y1="-3.114" x2="-80.909" y2="-3.114" xlink:href="#linear-gradient-13"/>
    <linearGradient id="linear-gradient-37" x1="-79.226" y1="-8.894" x2="-81.554" y2="-5.987" xlink:href="#linear-gradient-13"/>
    <linearGradient id="linear-gradient-38" x1="-62.323" y1="-18.745" x2="-64.19" y2="-12.135" xlink:href="#linear-gradient-13"/>
    <linearGradient id="linear-gradient-39" x1="-106.691" y1="-8.821" x2="-109.541" y2="-4.715" xlink:href="#linear-gradient-13"/>
    <linearGradient id="linear-gradient-40" x1="-78.517" y1="-30.097" x2="-79.643" y2="-28.815" xlink:href="#linear-gradient-13"/>
    <linearGradient id="linear-gradient-41" x1="-56.41" y1="-19.377" x2="-55.452" y2="-19.377" xlink:href="#linear-gradient-10"/>
    <linearGradient id="linear-gradient-42" x1="-228.528" y1="-96.681" x2="-225.976" y2="-99.278" xlink:href="#linear-gradient-13"/>
  </defs>
  <g id="Grupo_10553" data-name="Grupo 10553" transform="translate(-48 -298.961)">
    <g id="Grupo_10128" data-name="Grupo 10128" transform="translate(48 378.296)">
      <path id="Trazado_5758" data-name="Trazado 5758" d="M-556.417-2143.475s-124.158-238.753,6.806-445.106C16.284-3480.226,847.928-2899.923,599-2517.258c-102.643,157.782,220.4,191.978,123.521,374.173Z" transform="translate(674.79 3059.2)" fill="#e5e7f9"/>
      <path id="Rect치ngulo_1871" data-name="Rect치ngulo 1871" d="M1.95,0h1466.1A1.949,1.949,0,0,1,1470,1.949v0a1.949,1.949,0,0,1-1.949,1.949H1.95A1.95,1.95,0,0,1,0,1.95v0A1.95,1.95,0,0,1,1.95,0Z" transform="translate(0 913.43)" fill="#2e3552"/>
    </g>
    <g id="Grupo_10127" data-name="Grupo 10127" transform="translate(268.159 298.961)">
      <g id="Grupo_10103" data-name="Grupo 10103" transform="translate(0 0)">
        <g id="Grupo_10098" data-name="Grupo 10098" transform="translate(151.34)">
          <g id="Grupo_10095" data-name="Grupo 10095" transform="translate(15.539)" opacity="0.3">
            <path id="Trazado_5760" data-name="Trazado 5760" d="M936.554,545.555a3.825,3.825,0,0,1-.98-5.019c2.219-3.7,4.634-7.368,7.174-10.889a3.824,3.824,0,0,1,5.338-.863l.059.044a3.823,3.823,0,0,1,.8,5.293c-2.413,3.344-4.706,6.824-6.815,10.343a3.822,3.822,0,0,1-5.244,1.315A3.759,3.759,0,0,1,936.554,545.555Zm20.2-26.485a3.893,3.893,0,0,1-.346-.294,3.824,3.824,0,0,1-.127-5.406c2.995-3.137,6.152-6.179,9.387-9.038a3.823,3.823,0,1,1,5.065,5.728c-3.074,2.718-6.073,5.607-8.919,8.589A3.823,3.823,0,0,1,956.754,519.07Zm25.53-21.378a3.825,3.825,0,0,1,.187-6.247c3.609-2.389,7.368-4.649,11.173-6.72a3.823,3.823,0,1,1,3.655,6.716c-3.613,1.966-7.181,4.112-10.61,6.38A3.823,3.823,0,0,1,982.284,497.692Zm29.674-15.136a3.824,3.824,0,0,1,.956-6.635c4.056-1.521,8.225-2.884,12.394-4.054a3.823,3.823,0,1,1,2.064,7.363c-3.958,1.11-7.919,2.4-11.773,3.851A3.818,3.818,0,0,1,1011.958,482.556Zm32.3-8.138a3.824,3.824,0,0,1,1.781-6.846c4.281-.582,8.648-.989,12.978-1.207a3.823,3.823,0,0,1,.387,7.636c-4.116.208-8.266.594-12.335,1.147A3.815,3.815,0,0,1,1044.26,474.418Zm33.3-.79a3.823,3.823,0,0,1,2.628-6.868c4.311.38,8.66.949,12.925,1.694a3.824,3.824,0,0,1-1.316,7.533c-4.052-.708-8.183-1.25-12.28-1.61A3.8,3.8,0,0,1,1077.558,473.628Zm117.49,76.859a3.83,3.83,0,0,1-1.056-1.223c-1.969-3.605-4.123-7.172-6.4-10.6a3.823,3.823,0,1,1,6.368-4.23c2.4,3.612,4.668,7.369,6.743,11.165a3.825,3.825,0,0,1-5.655,4.891Zm-84.867-70.254a3.824,3.824,0,0,1,3.471-6.7c4.119,1.329,8.23,2.853,12.221,4.531a3.824,3.824,0,0,1-2.964,7.049c-3.789-1.594-7.692-3.041-11.6-4.3A3.861,3.861,0,0,1,1110.181,480.232Zm65.7,43.014a3.852,3.852,0,0,1-.566-.521c-2.728-3.074-5.625-6.071-8.61-8.908a3.823,3.823,0,1,1,5.268-5.543c3.14,2.986,6.189,6.14,9.061,9.373a3.824,3.824,0,0,1-5.153,5.6Zm-35.372-29.287a3.823,3.823,0,0,1,4.258-6.338c3.713,2.215,7.379,4.62,10.9,7.15l.066.048a3.823,3.823,0,0,1-4.529,6.159c-3.343-2.4-6.827-4.686-10.354-6.789C1140.734,494.117,1140.62,494.041,1140.512,493.959Z" transform="translate(-935.03 -466.36)" fill="url(#linear-gradient)"/>
            <path id="Trazado_5761" data-name="Trazado 5761" d="M1680.329,745.855A3.811,3.811,0,0,1,1679,744c-.618-1.872-1.286-3.762-1.983-5.619a3.823,3.823,0,0,1,7.157-2.69c.734,1.953,1.436,3.94,2.087,5.91a3.824,3.824,0,0,1-5.93,4.254Z" transform="translate(-1409.621 -637.1)" fill="url(#linear-gradient-2)"/>
          </g>
          <g id="Grupo_10096" data-name="Grupo 10096" transform="translate(0 188.916)" opacity="0.3">
            <path id="Trazado_5762" data-name="Trazado 5762" d="M1657.369,1068.936a3.825,3.825,0,0,1-1.083-4.838c.921-1.743,1.82-3.535,2.67-5.326a3.823,3.823,0,1,1,6.905,3.285c-.9,1.885-1.842,3.772-2.81,5.608a3.824,3.824,0,0,1-5.682,1.271Z" transform="translate(-1380.695 -1032.925)" fill="url(#linear-gradient-3)"/>
            <path id="Trazado_5763" data-name="Trazado 5763" d="M964.158,1120.731q-2.11-1.585-4.182-3.254a3.824,3.824,0,0,1,4.8-5.957c3.187,2.566,6.471,5,9.8,7.251a3.823,3.823,0,1,1-4.286,6.332C968.226,1123.71,966.164,1122.238,964.158,1120.731Zm-19-16.957a3.874,3.874,0,0,1-.486-.434c-2.93-3.1-5.763-6.358-8.416-9.685a3.823,3.823,0,1,1,5.977-4.768c2.521,3.16,5.211,6.255,8,9.2a3.823,3.823,0,0,1-5.071,5.685Zm42.534,31.427a3.824,3.824,0,0,1,3.992-6.484c3.622,1.787,7.371,3.442,11.143,4.919a3.824,3.824,0,1,1-2.79,7.121c-3.972-1.557-7.921-3.3-11.736-5.182A3.915,3.915,0,0,1,987.688,1135.2Zm-62.3-57.586a3.819,3.819,0,0,1-.989-1.106c-2.176-3.664-4.221-7.465-6.08-11.3a3.823,3.823,0,0,1,6.881-3.335c1.764,3.64,3.706,7.25,5.773,10.73a3.824,3.824,0,0,1-5.585,5.01Zm93.1,68.73a3.824,3.824,0,0,1,3.191-6.776c3.925.946,7.946,1.735,11.952,2.349a3.823,3.823,0,1,1-1.158,7.557c-4.218-.646-8.451-1.477-12.584-2.472A3.8,3.8,0,0,1,1018.492,1146.344Zm32.5,4.116a3.823,3.823,0,0,1,2.354-6.882c4.049.064,8.149-.042,12.183-.314a3.823,3.823,0,1,1,.515,7.629c-4.245.286-8.559.4-12.819.33A3.812,3.812,0,0,1,1051,1150.46Zm32.628-3.07a3.823,3.823,0,0,1,1.525-6.8c3.97-.818,7.947-1.814,11.823-2.96a3.824,3.824,0,0,1,2.165,7.334c-4.079,1.2-8.266,2.252-12.443,3.114A3.815,3.815,0,0,1,1083.624,1147.39Zm31.18-10.111a3.823,3.823,0,0,1,.726-6.539c3.693-1.667,7.354-3.509,10.885-5.478a3.824,3.824,0,1,1,3.724,6.679c-3.72,2.073-7.577,4.014-11.463,5.768A3.821,3.821,0,0,1,1114.8,1137.279Zm28.211-16.715a3.825,3.825,0,0,1-.007-6.111c3.225-2.434,6.39-5.037,9.406-7.739a3.823,3.823,0,1,1,5.1,5.7c-3.175,2.844-6.506,5.586-9.9,8.147A3.826,3.826,0,0,1,1143.014,1120.564Zm23.832-22.489c-.062-.047-.123-.1-.184-.147a3.825,3.825,0,0,1-.433-5.391c1.932-2.27,3.815-4.625,5.6-7q.97-1.291,1.907-2.6a3.822,3.822,0,0,1,5.336-.875,3.78,3.78,0,0,1,.877,5.334q-.986,1.373-2.006,2.733c-1.879,2.5-3.862,4.98-5.895,7.367A3.822,3.822,0,0,1,1166.846,1098.075Z" transform="translate(-908.557 -1034.927)" fill="url(#linear-gradient-4)"/>
            <path id="Trazado_5764" data-name="Trazado 5764" d="M895.18,1003.616a3.808,3.808,0,0,1-1.338-1.873c-.64-1.969-1.249-3.989-1.812-6a3.823,3.823,0,1,1,7.364-2.06c.535,1.913,1.115,3.831,1.721,5.7a3.823,3.823,0,0,1-5.934,4.235Z" transform="translate(-891.887 -990.885)" fill="url(#linear-gradient-5)"/>
          </g>
          <g id="Grupo_10097" data-name="Grupo 10097" transform="translate(32.999 36.665)">
            <path id="Trazado_5765" data-name="Trazado 5765" d="M984.561,700.78a1.787,1.787,0,0,0,1.271,1.64l20.83,6.256a94.733,94.733,0,0,0,12.868,27.867l-8.724,19.907a1.785,1.785,0,0,0,.425,2.03l19.174,17.689a1.788,1.788,0,0,0,2.058.261l19.141-10.3a94.759,94.759,0,0,0,28.812,10.585l7.912,20.259a1.788,1.788,0,0,0,1.736,1.136l26.066-1.051a1.788,1.788,0,0,0,1.64-1.271l6.256-20.83a94.725,94.725,0,0,0,27.867-12.868l19.907,8.724a1.784,1.784,0,0,0,2.029-.425l17.691-19.174a1.787,1.787,0,0,0,.26-2.059l-10.3-19.14a94.713,94.713,0,0,0,10.585-28.811l20.26-7.912a1.787,1.787,0,0,0,1.135-1.736l-1.05-26.067a1.787,1.787,0,0,0-1.271-1.64l-20.83-6.256a94.7,94.7,0,0,0-12.87-27.867l8.726-19.907a1.786,1.786,0,0,0-.426-2.031L1166.566,590.1a1.786,1.786,0,0,0-2.058-.26l-19.14,10.3a94.719,94.719,0,0,0-28.812-10.585l-7.911-20.259a1.787,1.787,0,0,0-1.737-1.135l-26.066,1.05a1.786,1.786,0,0,0-1.639,1.271l-6.257,20.829a94.694,94.694,0,0,0-27.867,12.869l-19.907-8.725a1.784,1.784,0,0,0-2.03.425l-17.689,19.174a1.787,1.787,0,0,0-.26,2.058l10.3,19.141a94.777,94.777,0,0,0-10.584,28.811l-20.259,7.912a1.789,1.789,0,0,0-1.135,1.737Z" transform="translate(-983.509 -568.159)" fill="#7595d5"/>
            <path id="Trazado_5766" data-name="Trazado 5766" d="M1240.4,861.774a26.236,26.236,0,1,1,3.242,2.082A26.262,26.262,0,0,1,1240.4,861.774Zm27.874-37.012a20.515,20.515,0,0,0-2.51-1.612,20.032,20.032,0,1,0,2.51,1.612Z" transform="translate(-1141.188 -725.839)" fill="#fff" opacity="0.56"/>
            <path id="Trazado_5767" data-name="Trazado 5767" d="M1153.444,824.348a65.413,65.413,0,0,1-5.092-4.242h0q-.773-.711-1.522-1.449a64.873,64.873,0,0,1-6.762-7.8l-.083-.113c-.079-.107-.157-.215-.234-.323q-.227-.315-.45-.632a1.528,1.528,0,0,1,.026-1.8,1.508,1.508,0,0,1,.345-.333,1.53,1.53,0,0,1,2.13.371,61.5,61.5,0,0,0,66.041,24.033,61.037,61.037,0,0,0,29.374-17.7,62.206,62.206,0,0,0,4.047-4.856,61.423,61.423,0,0,0-94.332-78.437,61.937,61.937,0,0,0-4,4.795,61.224,61.224,0,0,0-10.993,24.287,1.53,1.53,0,0,1-3-.624,64.3,64.3,0,0,1,11.543-25.5,64.486,64.486,0,0,1,95.3-8.7,64.494,64.494,0,0,1,7.918,86.014,65.953,65.953,0,0,1-4.247,5.1,64.49,64.49,0,0,1-86.022,7.912Z" transform="translate(-1076.545 -657.807)" fill="#fff" opacity="0.56"/>
          </g>
        </g>
        <g id="Grupo_10102" data-name="Grupo 10102" transform="translate(0 12.519)">
          <g id="Grupo_10099" data-name="Grupo 10099" transform="translate(2.626)" opacity="0.3">
            <path id="Trazado_5768" data-name="Trazado 5768" d="M479.925,675.128a2.36,2.36,0,0,1-.791-2.717c.7-1.878,1.473-3.759,2.289-5.592a2.361,2.361,0,0,1,4.315,1.919c-.777,1.747-1.512,3.54-2.183,5.332a2.365,2.365,0,0,1-3.041,1.383A2.429,2.429,0,0,1,479.925,675.128Z" transform="translate(-478.983 -606.242)" fill="url(#linear-gradient-6)"/>
            <path id="Trazado_5769" data-name="Trazado 5769" d="M501.893,553.651a2.362,2.362,0,0,1-.6-3.106,102.492,102.492,0,0,1,5.808-8.612q.654-.872,1.331-1.735a2.444,2.444,0,0,1,3.317-.4,2.363,2.363,0,0,1,.4,3.315q-.647.825-1.273,1.657a98.252,98.252,0,0,0-5.541,8.214,2.362,2.362,0,0,1-3.242.8C502.024,553.743,501.957,553.7,501.893,553.651Zm15.136-19.29a2.411,2.411,0,0,1-.257-.222,2.363,2.363,0,0,1,.005-3.341,102.5,102.5,0,0,1,9.43-8.31,2.362,2.362,0,1,1,2.9,3.729,97.92,97.92,0,0,0-8.995,7.927A2.361,2.361,0,0,1,517.029,534.362Zm19.362-15.043a2.361,2.361,0,0,1,.213-3.918,102.083,102.083,0,0,1,11.191-5.741,2.362,2.362,0,0,1,1.892,4.329,96.829,96.829,0,0,0-10.671,5.474A2.364,2.364,0,0,1,536.391,519.319ZM558.86,509.5a2.36,2.36,0,0,1,.748-4.151,102.265,102.265,0,0,1,12.251-2.828,2.362,2.362,0,0,1,.774,4.66,97.4,97.4,0,0,0-11.681,2.7A2.356,2.356,0,0,1,558.86,509.5Zm24.185-4.037a2.362,2.362,0,0,1,1.316-4.249,103.192,103.192,0,0,1,12.564.233,2.361,2.361,0,1,1-.375,4.707,98.39,98.39,0,0,0-11.987-.221A2.359,2.359,0,0,1,583.045,505.46Zm24.43,1.955a2.362,2.362,0,0,1,1.893-4.2,101.657,101.657,0,0,1,12.125,3.29,2.362,2.362,0,0,1-1.517,4.473,96.9,96.9,0,0,0-11.56-3.136A2.342,2.342,0,0,1,607.475,507.414Zm23.2,7.866a2.361,2.361,0,0,1,2.449-4.012,102.225,102.225,0,0,1,10.953,6.168,2.362,2.362,0,0,1-2.567,3.967,97.12,97.12,0,0,0-10.446-5.884A2.328,2.328,0,0,1,630.678,515.281Zm29.5,21.778a2.308,2.308,0,0,1-.31-.278,98.126,98.126,0,0,0-7.515-7.231c-.4-.347-.792-.684-1.19-1.015a2.362,2.362,0,0,1,3.029-3.626c.423.355.843.711,1.26,1.076a102.666,102.666,0,0,1,7.868,7.574,2.361,2.361,0,0,1-3.141,3.5Z" transform="translate(-493.039 -501.118)" fill="url(#linear-gradient-7)"/>
          </g>
          <g id="Grupo_10100" data-name="Grupo 10100" transform="translate(0 126.541)" opacity="0.3">
            <path id="Trazado_5770" data-name="Trazado 5770" d="M521.275,940.3a2.362,2.362,0,0,1,2.812-3.795,97.516,97.516,0,0,0,9.922,6.37A2.362,2.362,0,0,1,531.7,947a102.824,102.824,0,0,1-10.4-6.679Zm-9.307-7.7a2.382,2.382,0,0,1-.2-.166,103.311,103.311,0,0,1-8.516-8.965,2.362,2.362,0,0,1,3.614-3.042A98.637,98.637,0,0,0,515,928.979a2.362,2.362,0,0,1-3.027,3.616Zm30.351,19.471a2.361,2.361,0,0,1,2.31-4.074,97.839,97.839,0,0,0,11.173,3.783,2.362,2.362,0,0,1-1.243,4.558,102.359,102.359,0,0,1-11.711-3.968A2.353,2.353,0,0,1,542.32,952.066Zm-45.873-37.941a2.377,2.377,0,0,1-.561-.6,101.179,101.179,0,0,1-6.1-10.763,2.361,2.361,0,1,1,4.243-2.074,96.886,96.886,0,0,0,5.817,10.262,2.362,2.362,0,0,1-3.4,3.176ZM565.584,958.4a2.362,2.362,0,0,1,1.756-4.227,97.231,97.231,0,0,0,11.75.987,2.362,2.362,0,0,1-.109,4.723,102.614,102.614,0,0,1-12.321-1.034A2.363,2.363,0,0,1,565.584,958.4Zm24.1.566a2.361,2.361,0,0,1,1.186-4.24,98.483,98.483,0,0,0,11.651-1.852,2.361,2.361,0,0,1,1.022,4.61,103.418,103.418,0,0,1-12.212,1.943A2.354,2.354,0,0,1,589.688,958.963Zm23.548-5.224a2.364,2.364,0,0,1,.635-4.115,96.562,96.562,0,0,0,10.864-4.593,2.362,2.362,0,0,1,2.1,4.231,102.111,102.111,0,0,1-11.394,4.818A2.364,2.364,0,0,1,613.236,953.738Z" transform="translate(-483.114 -882.471)" fill="url(#linear-gradient-8)"/>
            <path id="Trazado_5771" data-name="Trazado 5771" d="M474.391,862.339a2.351,2.351,0,0,1-.813-1.118c-.659-1.911-1.263-3.85-1.8-5.763a2.362,2.362,0,1,1,4.549-1.273c.51,1.825,1.087,3.675,1.715,5.5a2.361,2.361,0,0,1-3.653,2.656Z" transform="translate(-471.692 -852.46)" fill="url(#linear-gradient-9)"/>
          </g>
          <g id="Grupo_10101" data-name="Grupo 10101" transform="translate(21.885 24.462)">
            <path id="Trazado_5772" data-name="Trazado 5772" d="M533.159,657.782a1.2,1.2,0,0,0,.851,1.1l13.938,4.186a63.422,63.422,0,0,0,8.611,18.648l-5.838,13.32a1.2,1.2,0,0,0,.285,1.359l12.83,11.837a1.2,1.2,0,0,0,1.377.174l12.808-6.891A63.361,63.361,0,0,0,597.3,708.6l5.294,13.557a1.2,1.2,0,0,0,1.162.759l17.442-.7a1.2,1.2,0,0,0,1.1-.851l4.186-13.938a63.4,63.4,0,0,0,18.647-8.611l13.321,5.839a1.2,1.2,0,0,0,1.359-.285l11.837-12.83a1.2,1.2,0,0,0,.174-1.377l-6.891-12.808a63.371,63.371,0,0,0,7.083-19.279l13.557-5.294a1.2,1.2,0,0,0,.76-1.161l-.7-17.443a1.2,1.2,0,0,0-.851-1.1l-13.939-4.187a63.371,63.371,0,0,0-8.611-18.647l5.838-13.321a1.2,1.2,0,0,0-.284-1.36l-12.831-11.836a1.2,1.2,0,0,0-1.378-.174l-12.807,6.891a63.393,63.393,0,0,0-19.28-7.083L616.19,569.8a1.194,1.194,0,0,0-1.162-.759l-17.442.7a1.2,1.2,0,0,0-1.1.851L592.3,584.53a63.389,63.389,0,0,0-18.647,8.611L560.334,587.3a1.2,1.2,0,0,0-1.359.285l-11.836,12.83a1.2,1.2,0,0,0-.174,1.378l6.891,12.807a63.415,63.415,0,0,0-7.083,19.28l-13.557,5.294a1.2,1.2,0,0,0-.759,1.162Z" transform="translate(-532.455 -569.038)" fill="#7595d5"/>
            <path id="Trazado_5773" data-name="Trazado 5773" d="M703.568,765.19a17.9,17.9,0,1,1,2.227,1.431A18.152,18.152,0,0,1,703.568,765.19Zm18.656-24.765a13.342,13.342,0,0,0-1.624-1.043,13.14,13.14,0,0,0-12.548,23.09h0a13.14,13.14,0,0,0,14.172-22.047Z" transform="translate(-637.389 -673.991)" fill="#fff" opacity="0.56"/>
            <path id="Trazado_5774" data-name="Trazado 5774" d="M642.952,739.092a45.227,45.227,0,0,1-3.475-2.9,44.728,44.728,0,0,1-6.007-6.787l-.235-.332a2.361,2.361,0,0,1,.04-2.776,2.4,2.4,0,0,1,.532-.515,2.365,2.365,0,0,1,3.289.573,39.856,39.856,0,0,0,5.582,6.364h0c.114.105.23.209.344.313a39.381,39.381,0,0,0,17.208,9.114,39.978,39.978,0,0,0,10.651,1.091l.088,0c.091,0,.18-.006.27-.01a39.5,39.5,0,0,0,27.624-12.768,40.3,40.3,0,0,0,2.62-3.143,39.765,39.765,0,1,0-70.771-31.953,2.361,2.361,0,1,1-4.623-.963,44.488,44.488,0,1,1,79.176,35.745,45.3,45.3,0,0,1-2.93,3.516A44.55,44.55,0,0,1,642.952,739.092Z" transform="translate(-592.333 -626.609)" fill="#fff" opacity="0.56"/>
          </g>
        </g>
      </g>
      <g id="Grupo_10105" data-name="Grupo 10105" transform="translate(755.596 107.147)">
        <path id="Trazado_5778" data-name="Trazado 5778" d="M2598.927,764.011c2.925,10.02,5.145,20.211,7.181,30.434q2.991,15.349,5.216,30.836c2.988,20.64,5,41.416,6.362,62.23,1.341,20.818,1.95,41.682,1.959,62.55s-.744,41.733-1.923,62.572l-1,15.623-1.281,15.6-.651,7.8-.8,7.788-1.607,15.577c-2.487,20.726-5.154,41.446-8.633,62.038q-10.1,61.833-25.779,122.606a4.244,4.244,0,1,1-8.22-2.112l.017-.069q16.477-60.1,27.6-121.518c3.793-20.435,6.78-41.006,9.588-61.6l1.847-15.479.921-7.741.775-7.756,1.525-15.517,1.253-15.542c1.506-20.734,2.6-41.509,2.919-62.3s.054-41.6-.949-62.381-2.7-41.532-5.346-62.174q-1.949-15.487-4.71-30.857c-1.866-10.233-3.922-20.455-6.674-30.482l0-.008a.217.217,0,0,1,.151-.267A.22.22,0,0,1,2598.927,764.011Z" transform="translate(-2569.611 -763.854)" fill="#fff" style="mix-blend-mode: soft-light;isolation: isolate"/>
      </g>
      <g id="Grupo_10106" data-name="Grupo 10106" transform="translate(42.385 190.299)">
        <path id="Trazado_5779" data-name="Trazado 5779" d="M623.5,997.636a37.229,37.229,0,0,0-33.968,37.013c-.334,117.832-.886,524.267,6.795,668.123a28.909,28.909,0,0,0,28.569,27.377c75.481.813,292.6,2.306,415.861-5.579a48.679,48.679,0,0,0,45.62-48.631c-.15-123.669-2.126-471.47-19.066-630.446a39.729,39.729,0,0,0-36.439-35.4C948.549,1003.677,729.937,988.38,623.5,997.636Z" transform="translate(-589.371 -994.736)" fill="url(#linear-gradient-10)"/>
        <path id="Trazado_5780" data-name="Trazado 5780" d="M669.416,1128.227c-1.482,100.794-5.7,436.1,1.665,559.853,1.077,18.088,15.127,32.369,32.477,32.973,71.433,2.49,254.609,7.308,358.987-4.178,18.795-2.068,33.16-18.359,33.66-38.085,2.61-102.862,9.663-415.157,2.5-537.529-1.143-19.522-16.056-35.1-34.752-36.359-77.344-5.212-275.956-17.23-364.715-9.839C682.579,1096.452,669.673,1110.776,669.416,1128.227Z" transform="translate(-638.954 -1057.432)" fill="url(#linear-gradient-11)"/>
        <path id="Trazado_5781" data-name="Trazado 5781" d="M709.787,1174.355c-1.379,96.371-5.292,416.961,1.713,535.287,1.024,17.3,14.33,30.952,30.756,31.534,67.628,2.4,241.05,7.049,339.866-3.905,17.793-1.973,31.389-17.547,31.858-36.406,2.447-98.346,9.047-396.938,2.238-513.94-1.087-18.665-15.21-33.562-32.91-34.772-73.227-5-261.263-16.542-345.293-9.5C722.24,1143.977,710.025,1157.67,709.787,1174.355Z" transform="translate(-664.921 -1087.96)" fill="#fff" opacity="0.03"/>
        <path id="Trazado_5782" data-name="Trazado 5782" d="M1153.088,1041.2a5.226,5.226,0,0,0,5.065,5.119c13.746.418,52.466,1.6,69.771,2.226a5.233,5.233,0,0,0,5.3-6.337c-.059-.105-.5-4.385-4.875-4.689-11.706-.814-47.025-3.008-70.365-1.661C1153.193,1036.13,1152.932,1041.582,1153.088,1041.2Z" transform="translate(-950.037 -1020.772)" fill="#1f5aa9"/>
      </g>
      <g id="Grupo_10108" data-name="Grupo 10108" transform="translate(405.579 152.502)">
        <path id="Trazado_5783" data-name="Trazado 5783" d="M1635.108,892.941a40.72,40.72,0,0,0-37.151,40.483c-.366,128.877-.969,573.408,7.432,730.748a31.619,31.619,0,0,0,31.246,29.944c82.557.887,320.028,2.521,454.841-6.1a53.243,53.243,0,0,0,49.9-53.189c-.165-135.261-2.326-515.661-20.853-689.538a43.452,43.452,0,0,0-39.855-38.722C1990.624,899.548,1751.521,882.816,1635.108,892.941Z" transform="translate(-1597.778 -889.768)" fill="url(#linear-gradient-12)"/>
        <path id="Trazado_5784" data-name="Trazado 5784" d="M1685.327,1035.771c-1.622,110.243-6.237,476.976,1.82,612.33,1.178,19.783,16.547,35.4,35.522,36.063,78.129,2.723,278.475,7.992,392.636-4.569,20.556-2.262,36.268-20.081,36.816-41.656,2.854-112.5,10.569-454.071,2.737-587.912-1.25-21.351-17.562-38.388-38.01-39.766-84.595-5.7-301.823-18.845-398.9-10.76C1699.723,1001.018,1685.608,1016.685,1685.327,1035.771Z" transform="translate(-1652.01 -958.342)" fill="none"/>
        <path id="Trazado_5785" data-name="Trazado 5785" d="M1723.856,1084.195c-1.446,104.816-5.529,453.5,2.035,582.194,1.105,18.81,15.4,33.67,33.032,34.308,72.611,2.633,258.809,7.755,364.9-4.123,19.1-2.141,33.7-19.072,34.193-39.586,2.589-106.962,9.566-431.716,2.213-558.974-1.174-20.3-16.343-36.508-35.348-37.83-78.622-5.468-280.512-18.087-370.728-10.455C1737.215,1051.161,1724.105,1066.049,1723.856,1084.195Z" transform="translate(-1676.91 -990.588)" fill="#659dff" opacity="0.3"/>
        <path id="Trazado_5786" data-name="Trazado 5786" d="M2214.334,940.584a5.718,5.718,0,0,0,5.542,5.6c15.032.456,57.383,1.753,76.31,2.435a5.722,5.722,0,0,0,5.8-6.931c-.063-.114-.549-4.795-5.33-5.127-12.8-.891-51.434-3.291-76.96-1.818C2214.452,935.043,2214.165,941,2214.334,940.584Z" transform="translate(-1992.251 -918.244)" fill="#1f5aa9"/>
      </g>
      <g id="Grupo_10111" data-name="Grupo 10111" transform="translate(145.202 387.085)">
        <rect id="Rect치ngulo_2551" data-name="Rect치ngulo 2551" width="216.707" height="86.683" rx="12" fill="#5080df"/>
        <g id="Grupo_10110" data-name="Grupo 10110" transform="translate(30.929 20.62)">
          <path id="Trazado_5787" data-name="Trazado 5787" d="M988.9,1607.93a3.878,3.878,0,0,1-.967,1.1,2.162,2.162,0,0,1-1.3.368,3.186,3.186,0,0,1-1.52-.446q-.813-.443-1.842-1a15.293,15.293,0,0,0-2.347-1,9.439,9.439,0,0,0-3.008-.444,6.476,6.476,0,0,0-4.343,1.242,4.23,4.23,0,0,0-1.428,3.363,3.1,3.1,0,0,0,.86,2.24,7.4,7.4,0,0,0,2.256,1.535,24.065,24.065,0,0,0,3.192,1.181q1.8.538,3.668,1.2a32.7,32.7,0,0,1,3.667,1.55,12.245,12.245,0,0,1,3.192,2.271,10.6,10.6,0,0,1,2.256,3.361,11.953,11.953,0,0,1,.86,4.773,15.542,15.542,0,0,1-1.075,5.8,13.563,13.563,0,0,1-3.116,4.711,14.421,14.421,0,0,1-5.034,3.161,18.8,18.8,0,0,1-6.8,1.151,21.862,21.862,0,0,1-4.252-.429,25.12,25.12,0,0,1-4.19-1.213,24.163,24.163,0,0,1-3.806-1.856,16.119,16.119,0,0,1-3.1-2.395l3.07-4.849a2.493,2.493,0,0,1,.952-.891,2.7,2.7,0,0,1,1.319-.337,3.5,3.5,0,0,1,1.857.582q.937.585,2.118,1.29a17.054,17.054,0,0,0,2.716,1.289,10.174,10.174,0,0,0,3.622.584,6.9,6.9,0,0,0,4.389-1.244,4.733,4.733,0,0,0,1.565-3.944,3.731,3.731,0,0,0-.859-2.548,6.658,6.658,0,0,0-2.256-1.627,20.755,20.755,0,0,0-3.177-1.135q-1.781-.491-3.653-1.091a26.657,26.657,0,0,1-3.652-1.472,11.513,11.513,0,0,1-3.177-2.3,10.744,10.744,0,0,1-2.257-3.561,14.132,14.132,0,0,1-.86-5.263,12.494,12.494,0,0,1,1.014-4.912,12.674,12.674,0,0,1,2.977-4.265,14.649,14.649,0,0,1,4.818-2.994,17.8,17.8,0,0,1,6.538-1.121,24.646,24.646,0,0,1,4.006.323,21.067,21.067,0,0,1,3.7.951,20.477,20.477,0,0,1,3.269,1.5,15.089,15.089,0,0,1,2.716,1.98Z" transform="translate(-960.721 -1598.353)" fill="#fff"/>
          <path id="Trazado_5788" data-name="Trazado 5788" d="M1090.926,1599.716v7.981H1072.57v10.436h14.059v7.673H1072.57v10.651h18.356v7.98h-28.791v-44.721Z" transform="translate(-1025.609 -1599.225)" fill="#fff"/>
          <path id="Trazado_5789" data-name="Trazado 5789" d="M1165.032,1599.778a2.907,2.907,0,0,1,.829.229,2.809,2.809,0,0,1,.705.477,8.089,8.089,0,0,1,.768.829l21.241,26.856q-.123-1.289-.185-2.5t-.06-2.286v-23.666h9.146v44.721h-5.4a4.981,4.981,0,0,1-2.026-.368,4.313,4.313,0,0,1-1.594-1.35l-21.088-26.644q.092,1.169.155,2.287t.061,2.1v23.972h-9.146v-44.721h5.462A8.433,8.433,0,0,1,1165.032,1599.778Z" transform="translate(-1087.224 -1599.225)" fill="#fff"/>
          <path id="Trazado_5790" data-name="Trazado 5790" d="M1327.867,1622.061a23.455,23.455,0,0,1-1.673,8.948,20.951,20.951,0,0,1-4.712,7.09,21.343,21.343,0,0,1-7.32,4.666,25.92,25.92,0,0,1-9.5,1.672H1287.29v-44.721h17.373a25.725,25.725,0,0,1,9.5,1.689,21.674,21.674,0,0,1,7.32,4.666,20.782,20.782,0,0,1,4.712,7.074A23.375,23.375,0,0,1,1327.867,1622.061Zm-10.62,0a19.481,19.481,0,0,0-.86-5.985,12.781,12.781,0,0,0-2.471-4.528,10.734,10.734,0,0,0-3.943-2.853,13.386,13.386,0,0,0-5.31-1h-6.936v28.76h6.936a13.369,13.369,0,0,0,5.31-1,10.72,10.72,0,0,0,3.943-2.854,12.779,12.779,0,0,0,2.471-4.527A19.588,19.588,0,0,0,1317.247,1622.061Z" transform="translate(-1169.671 -1599.225)" fill="#fff"/>
        </g>
      </g>
      <g id="Grupo_10112" data-name="Grupo 10112" transform="translate(272.107 233.93)">
        <path id="Trazado_5791" data-name="Trazado 5791" d="M1638.62,1188.95c-139.988-86.474-259.494-85.726-396.99-19.7a25.385,25.385,0,0,0-14.427,23.159l.065,5.718a25.338,25.338,0,0,0,34.037,23.508c118.892-43.5,207.955-66.492,352.043,11.217a25.325,25.325,0,0,0,37.182-19.713h0A25.359,25.359,0,0,0,1638.62,1188.95Z" transform="translate(-1227.2 -1119.593)" fill="#7595d5"/>
        <path id="Trazado_5792" data-name="Trazado 5792" d="M2180.981,1118.362l74.854,114.684a5.516,5.516,0,0,1-4.148,8.512l-131.276,11.257a6.394,6.394,0,0,1-6.356-9.042c31.357-40.336,49.7-81.981,57.324-124.7A5.5,5.5,0,0,1,2180.981,1118.362Z" transform="translate(-1794.261 -1115.868)" fill="#7595d5"/>
      </g>
      <g id="Grupo_10114" data-name="Grupo 10114" transform="translate(81.126 460.631)">
        <path id="Trazado_5793" data-name="Trazado 5793" d="M947.234,2624.343l-31.52,7.881,7.88,59.1s-11.82,11.82-15.76,27.58-7.573,81.934-7.573,81.934l-7.48,4.523-.909,3.775,21.76,29.257-3.609-23.286c-.572-3.7.42-11.194.107-11.35,11.821-31.522,37.1-120.314,37.1-120.314Z" transform="translate(-821.663 -2307.742)" fill="url(#linear-gradient-13)"/>
        <path id="Trazado_5794" data-name="Trazado 5794" d="M1012.8,2711.545c-.342,0-.677.023-1.02,0,1.523-19,8.484-102.631,15.449-133.976,7.88-35.46-11.82-106.381-11.82-106.381l-35.461,35.46,19.7,66.979c-13.5,20.252,2.2,138.847,1.864,138.794l.022.264-5.141,7.067.625,3.833,31.4,18.53-12.355-20.063A22.547,22.547,0,0,1,1012.8,2711.545Z" transform="translate(-878.018 -2209.749)" fill="url(#linear-gradient-14)"/>
        <path id="Trazado_5795" data-name="Trazado 5795" d="M905.9,2034.525s-69.042,77.814,0,117.711l7.035-5.094s-34.277-32.825,0-73Z" transform="translate(-811.007 -1930.358)" fill="url(#linear-gradient-15)"/>
        <path id="Trazado_5796" data-name="Trazado 5796" d="M1055.315,3178.565h-10.021a6.022,6.022,0,0,1-4.788-2.348c-3.125-4.059-9.6-11.979-12.693-12.184-4.166-.277-3.632,14.532-3.632,14.532h-2.336l-2.958-18.406a10.892,10.892,0,0,1,5.717-11.386h0s.953,7.042,6.117,10.156,21.015,14.277,21.015,14.277a14.4,14.4,0,0,1,4.073.1A2.651,2.651,0,0,1,1055.315,3178.565Z" transform="translate(-902.843 -2643.291)" fill="url(#linear-gradient-16)"/>
        <path id="Trazado_5797" data-name="Trazado 5797" d="M899.643,3158.383l-9.237-3.887a6.038,6.038,0,0,1-3.5-4.021c-1.306-4.953-4.2-14.764-6.973-16.156-3.732-1.87-8.984,11.989-8.984,11.989l-2.153-.906,4.41-18.112a10.9,10.9,0,0,1,9.686-8.282h0s-1.853,6.862,1.7,11.739,13.836,21.3,13.836,21.3a14.32,14.32,0,0,1,3.712,1.678A2.652,2.652,0,0,1,899.643,3158.383Z" transform="translate(-806.896 -2624.247)" fill="url(#linear-gradient-17)"/>
        <path id="Trazado_5798" data-name="Trazado 5798" d="M982.862,2303.752s-1.159,7.1.539,26.627,9.813,65.365,8.16,109.225c0,0-23.07,5.378-63.154,2.829,0,0-16.916-68.477-12.794-94.509s26.475-44.708,26.475-44.708Z" transform="translate(-836.44 -2102.276)" fill="#5080df"/>
        <path id="Trazado_5799" data-name="Trazado 5799" d="M1013.563,1911.455l2.821,33.156h-26.79l6.66-50.611Z" transform="translate(-884.19 -1840.444)" fill="url(#linear-gradient-15)"/>
        <path id="Trazado_5800" data-name="Trazado 5800" d="M951.976,2020.081c9.245-.509,29.917-1.452,44.562-.655,7.711.42,17.132,2.558,18.71,10.117l.608,20.511a41.223,41.223,0,0,1-.58,19.259l-14.346,52.664s-12.76,7.667-40.774-.538c0,0-24.6-58.668-14.531-96.194A6.974,6.974,0,0,1,951.976,2020.081Z" transform="translate(-854.507 -1920.498)" fill="#7595d5"/>
        <path id="Trazado_5801" data-name="Trazado 5801" d="M1105.124,1891.39c1.433-.325,2.9-.566,4.322-.8,16.281-2.715,31.3-8.745,47.181-12.617,1.982-.482,10.462-1.016,11.393-3.091,7.672-17.1,7.183-37.442,9.9-55.718l.014-.09a4.075,4.075,0,0,1,7.8-.953,115.337,115.337,0,0,1,9.061,42.8c.116,13.222-1.979,26.669-13.413,35-11.526,8.4-31.423,19.617-44.762,22.673-9.471,2.171-34.514,12.334-41.182.549-1.468-2.6-1.826-5.661-1.981-8.64a26.689,26.689,0,0,1,1.209-10.882C1096.506,1894.775,1100.291,1892.484,1105.124,1891.39Z" transform="translate(-950.596 -1790.278)" fill="url(#linear-gradient-19)"/>
        <path id="Trazado_5802" data-name="Trazado 5802" d="M1322.431,1779.348l-9.179-8.211,2.249-25.831s4.78-.486,3.149,10.13c0,0,5.173-2.214,9.159,1.284S1329.49,1782.041,1322.431,1779.348Z" transform="translate(-1091.277 -1745.302)" fill="url(#linear-gradient-20)"/>
        <path id="Trazado_5803" data-name="Trazado 5803" d="M1022.491,1825.961c1.063.322,14.7,24.352,11.214,36.679s-25.187,4.782-34.094-9.63S994.169,1817.419,1022.491,1825.961Z" transform="translate(-887.818 -1795.652)" fill="url(#linear-gradient-21)"/>
        <g id="Grupo_10113" data-name="Grupo 10113" transform="translate(0 12.672)">
          <path id="Trazado_5804" data-name="Trazado 5804" d="M782.8,1828.92c2.007,21.539-13.392,20.147-20.373,32.115-11.314,19.4-38.41,11.15-56.109,31.648-12.777,14.8-12.635,42.707,1.216,61.076,19.185,25.443,58.664,26.33,74.631,11.969,15.259-13.721,5.162-37.912,26.17-54.811,8.919-7.175,14.74-6.035,18.985-13.947,7.431-13.852-1.692-33.6-5.206-41.205-7.627-16.506-14.35-17.876-13.885-26.286.907-16.36,26.883-20.914,25.819-31.949-.969-10.047-24.571-22.5-40.8-14.486C768.134,1795.438,781.909,1819.325,782.8,1828.92Z" transform="translate(-696.938 -1780.485)" fill="url(#linear-gradient-22)"/>
          <path id="Trazado_5805" data-name="Trazado 5805" d="M713.349,2121.153a.724.724,0,0,1-.811-.378c-6.8-13.491-7.983-25.582-3.526-35.943,7.4-17.193,28.111-23.577,28.319-23.641a.736.736,0,0,1,.9.487.724.724,0,0,1-.485.9c-.2.06-20.287,6.264-27.41,22.836-4.275,9.946-3.1,21.623,3.495,34.709a.722.722,0,0,1-.482,1.031Z" transform="translate(-702.972 -1960.067)" fill="#fff" opacity="0.6"/>
          <path id="Trazado_5806" data-name="Trazado 5806" d="M924.935,2053.9a.448.448,0,0,1-.092.008.364.364,0,0,1-.353-.37c.337-13.659,4.128-23.979,11.264-30.674,5.192-4.873,10.739-6.512,15.632-7.958,4.718-1.4,8.793-2.6,11.424-6.339,5.438-7.724,1.6-22.322-11.424-43.393a.362.362,0,0,1,.617-.379c13.184,21.339,17.019,36.207,11.4,44.188-2.776,3.941-6.961,5.181-11.809,6.615-4.816,1.425-10.275,3.041-15.341,7.793-6.991,6.558-10.7,16.707-11.035,30.165A.363.363,0,0,1,924.935,2053.9Z" transform="translate(-842.533 -1898.304)" fill="#fff" opacity="0.72"/>
          <path id="Trazado_5807" data-name="Trazado 5807" d="M960.9,1838.784a.354.354,0,0,1-.116.008.363.363,0,0,1-.327-.4c.807-8.558,8.766-9.181,17.2-9.839,5.338-.415,10.856-.849,15.061-3.246,3.136-1.789,4.777-3.808,4.874-6,.167-3.734-4.211-6.825-4.255-6.856a.361.361,0,1,1,.413-.592c.193.133,4.747,3.345,4.566,7.477-.109,2.455-1.871,4.675-5.239,6.6-4.346,2.479-9.946,2.917-15.364,3.339-8.466.662-15.786,1.23-16.536,9.188A.36.36,0,0,1,960.9,1838.784Z" transform="translate(-865.546 -1800.52)" fill="#fff" opacity="0.72"/>
        </g>
      </g>
      <g id="Grupo_10126" data-name="Grupo 10126" transform="translate(453.261 403.665)">
        <g id="Grupo_10116" data-name="Grupo 10116" transform="translate(0 79.181)">
          <circle id="Elipse_1114" data-name="Elipse 1114" cx="46.485" cy="46.485" r="46.485" transform="translate(0 65.74) rotate(-45)" fill="url(#linear-gradient-23)"/>
          <circle id="Elipse_1115" data-name="Elipse 1115" cx="44.939" cy="44.939" r="44.939" transform="translate(2.186 65.74) rotate(-45)" fill="url(#linear-gradient-24)"/>
          <path id="Trazado_5808" data-name="Trazado 5808" d="M1806.71,1895.791a1.747,1.747,0,0,1-1.555-2.533,43.044,43.044,0,0,1,38.613-23.776,43.777,43.777,0,0,1,7.8.7,1.747,1.747,0,0,1-.627,3.437,39.985,39.985,0,0,0-7.17-.646,39.572,39.572,0,0,0-35.5,21.856A1.745,1.745,0,0,1,1806.71,1895.791Z" transform="translate(-1778.029 -1846.973)" fill="#fff"/>
          <circle id="Elipse_1116" data-name="Elipse 1116" cx="38.036" cy="38.036" r="38.036" transform="translate(12.928 66.719) rotate(-45)" fill="#fff" opacity="0.78"/>
          <g id="Grupo_10115" data-name="Grupo 10115" transform="translate(49.966 39.8)">
            <path id="Trazado_5809" data-name="Trazado 5809" d="M1881.926,1972.681v-4.137a33.791,33.791,0,0,1-11.611-2.518,2.4,2.4,0,0,1-1.323-2.827l1.051-3.856a2.416,2.416,0,0,1,3.276-1.579,28.026,28.026,0,0,0,10.722,2.258c4.154,0,7.253-1.408,7.253-4.3,0-2.6-2.4-4.154-8.17-5.7-8.239-2.254-14.155-5.845-14.155-13.1,0-6.55,4.79-11.552,13.1-12.888V1919.9a2.411,2.411,0,0,1,2.41-2.411h2.433a2.411,2.411,0,0,1,2.41,2.411v3.716a30.686,30.686,0,0,1,9.2,1.652,2.4,2.4,0,0,1,1.5,2.9l-.965,3.565a2.4,2.4,0,0,1-3.174,1.625,25.083,25.083,0,0,0-9.026-1.64c-4.93,0-6.337,2.042-6.337,3.875,0,2.253,2.956,3.8,9.365,5.773,9.156,2.747,12.959,6.548,12.959,13.381,0,6.268-4.647,11.9-13.663,13.309v4.632a2.409,2.409,0,0,1-2.41,2.411h-2.433A2.41,2.41,0,0,1,1881.926,1972.681Z" transform="translate(-1868.906 -1917.487)" fill="url(#linear-gradient-25)"/>
          </g>
        </g>
        <g id="Grupo_10118" data-name="Grupo 10118" transform="translate(148.255 154.552)">
          <circle id="Elipse_1117" data-name="Elipse 1117" cx="83.268" cy="83.268" r="83.268" transform="translate(0 117.759) rotate(-45)" fill="url(#linear-gradient-23)"/>
          <circle id="Elipse_1118" data-name="Elipse 1118" cx="80.5" cy="80.5" r="80.5" transform="translate(3.916 117.759) rotate(-45)" fill="url(#linear-gradient-24)"/>
          <path id="Trazado_5810" data-name="Trazado 5810" d="M2281.359,2176.4a1.746,1.746,0,0,1-1.557-2.533,75.739,75.739,0,0,1,67.938-41.827,76.863,76.863,0,0,1,13.719,1.232,1.746,1.746,0,0,1-.625,3.435,73.324,73.324,0,0,0-13.094-1.177,72.264,72.264,0,0,0-64.822,39.911A1.74,1.74,0,0,1,2281.359,2176.4Z" transform="translate(-2229.981 -2090.341)" fill="#fff"/>
          <circle id="Elipse_1119" data-name="Elipse 1119" cx="68.133" cy="68.133" r="68.133" transform="translate(23.159 119.513) rotate(-45)" fill="#fff" opacity="0.78"/>
          <g id="Grupo_10117" data-name="Grupo 10117" transform="translate(89.504 71.293)">
            <path id="Trazado_5811" data-name="Trazado 5811" d="M2413.639,2313.07v-7.41a60.463,60.463,0,0,1-20.8-4.512,4.289,4.289,0,0,1-2.369-5.064l1.882-6.9a4.322,4.322,0,0,1,5.868-2.829,50.224,50.224,0,0,0,19.2,4.042c7.444,0,12.993-2.522,12.993-7.694,0-4.668-4.289-7.443-14.633-10.218-14.758-4.037-25.356-10.469-25.356-23.463,0-11.733,8.578-20.689,23.464-23.085v-7.411a4.319,4.319,0,0,1,4.318-4.322h4.354a4.322,4.322,0,0,1,4.322,4.322v6.654a55.061,55.061,0,0,1,16.485,2.96,4.3,4.3,0,0,1,2.687,5.188l-1.733,6.386a4.307,4.307,0,0,1-5.686,2.909,44.963,44.963,0,0,0-16.17-2.936c-8.828,0-11.351,3.658-11.351,6.94,0,4.037,5.3,6.811,16.778,10.343,16.4,4.92,23.21,11.729,23.21,23.968,0,11.228-8.323,21.319-24.47,23.842v8.3a4.321,4.321,0,0,1-4.319,4.319h-4.356A4.32,4.32,0,0,1,2413.639,2313.07Z" transform="translate(-2390.316 -2214.198)" fill="url(#linear-gradient-28)"/>
          </g>
        </g>
        <g id="Grupo_10120" data-name="Grupo 10120" transform="translate(27.71 173.733)">
          <circle id="Elipse_1120" data-name="Elipse 1120" cx="61.01" cy="61.01" r="61.01" transform="translate(0 86.281) rotate(-45)" fill="url(#linear-gradient-23)"/>
          <circle id="Elipse_1121" data-name="Elipse 1121" cx="58.981" cy="58.981" r="58.981" transform="translate(2.869 86.281) rotate(-45)" fill="url(#linear-gradient-24)"/>
          <path id="Trazado_5812" data-name="Trazado 5812" d="M1908.535,2186.489a1.746,1.746,0,0,1-1.557-2.534,55.961,55.961,0,0,1,50.194-30.905,56.674,56.674,0,0,1,10.136.913,1.747,1.747,0,0,1-.626,3.437,52.789,52.789,0,0,0-56.587,28.129A1.745,1.745,0,0,1,1908.535,2186.489Z" transform="translate(-1870.889 -2122.96)" fill="#fff"/>
          <circle id="Elipse_1122" data-name="Elipse 1122" cx="49.92" cy="49.92" r="49.92" transform="translate(29.372 47.598) rotate(-10.519)" fill="#fff" opacity="0.78"/>
          <g id="Grupo_10119" data-name="Grupo 10119" transform="translate(65.579 52.236)">
            <path id="Trazado_5813" data-name="Trazado 5813" d="M2006.283,2286.979v-5.43a44.315,44.315,0,0,1-15.242-3.3,3.144,3.144,0,0,1-1.735-3.711l1.38-5.061a3.166,3.166,0,0,1,4.3-2.069,36.779,36.779,0,0,0,14.069,2.962c5.453,0,9.521-1.849,9.521-5.639,0-3.419-3.143-5.45-10.72-7.484-10.816-2.958-18.58-7.672-18.58-17.193,0-8.6,6.286-15.158,17.193-16.914V2217.7a3.165,3.165,0,0,1,3.165-3.163h3.19a3.164,3.164,0,0,1,3.166,3.163v4.877a40.4,40.4,0,0,1,12.078,2.169,3.147,3.147,0,0,1,1.969,3.8l-1.269,4.679a3.156,3.156,0,0,1-4.166,2.131,32.92,32.92,0,0,0-11.847-2.152c-6.469,0-8.318,2.68-8.318,5.083,0,2.958,3.88,4.991,12.291,7.58,12.017,3.606,17.008,8.594,17.008,17.562,0,8.223-6.1,15.619-17.932,17.469v6.076a3.162,3.162,0,0,1-3.163,3.165h-3.192A3.162,3.162,0,0,1,2006.283,2286.979Z" transform="translate(-1989.193 -2214.54)" fill="url(#linear-gradient-25)"/>
          </g>
        </g>
        <g id="Grupo_10122" data-name="Grupo 10122" transform="translate(122.208 42.915)">
          <path id="Trazado_5814" data-name="Trazado 5814" d="M2771.151,3144.59s4.491,6.342,6.467,24.638a2.993,2.993,0,0,1-2.808,3.314l-32.516,1.65a1.919,1.919,0,0,1-1.951-2.431c1.62-5.735,6.683-19.775,19.14-28.286Z" transform="translate(-2498.679 -2625.851)" fill="url(#linear-gradient-32)"/>
          <path id="Trazado_5815" data-name="Trazado 5815" d="M2808.751,3112.9l-3.562,15.137a2.9,2.9,0,0,1-2.8,2.252,25.665,25.665,0,0,1-6.834-.836,4.766,4.766,0,0,1-3.376-5.141l1.671-14.813Z" transform="translate(-2531.869 -2604.111)" fill="url(#linear-gradient-33)"/>
          <path id="Trazado_5816" data-name="Trazado 5816" d="M2527.928,3149.688a45.478,45.478,0,0,1,6.9,22.755,5.754,5.754,0,0,1-5.585,5.825l-50.535,1.76a2.421,2.421,0,0,1-1.544-4.352c9.33-7.047,27.686-20.249,41.109-25.653Z" transform="translate(-2329.715 -2629.825)" fill="url(#linear-gradient-34)"/>
          <path id="Trazado_5817" data-name="Trazado 5817" d="M2600.657,3094.512l-1.3,19.428a3.926,3.926,0,0,1-4.185,3.695,14.223,14.223,0,0,1-4.657-1.234,4.517,4.517,0,0,1-2.624-4.292l.88-23.439Z" transform="translate(-2401.182 -2590.784)" fill="url(#linear-gradient-35)"/>
          <path id="Trazado_5818" data-name="Trazado 5818" d="M2696.024,2393.421s12.221,13.494,13.152,28.177-35.235,247.542-35.235,247.542-13.824.727-20.345-4.3c0,0,8.823-152.774,6.473-188.573,0,0-50.807,153.557-63.177,180.943,0,0-13.251.117-17.188-2.846,0,0,31.652-202.909,46.623-237.93Z" transform="translate(-2395.945 -2145.939)" fill="#345ba8"/>
          <path id="Trazado_5819" data-name="Trazado 5819" d="M2802.423,2554.407a1.977,1.977,0,0,0,1.845-1.27l7.981-20.737,12.66-6.246a1.978,1.978,0,1,0-1.75-3.548l-13.354,6.586a1.978,1.978,0,0,0-.972,1.063l-8.258,21.463a1.979,1.979,0,0,0,1.135,2.559A2.021,2.021,0,0,0,2802.423,2554.407Z" transform="translate(-2537.18 -2228.465)" fill="#7595d5"/>
          <path id="Trazado_5820" data-name="Trazado 5820" d="M2477.549,1958.827c57.666,1.7,71.264,15.2,71.264,15.2l-32.343,40.246s-56.009-7.438-92.736-42.974a98.855,98.855,0,0,0,18.82-22.226A76.17,76.17,0,0,0,2477.549,1958.827Z" transform="translate(-2296.148 -1861.632)" fill="#5080df"/>
          <path id="Trazado_5821" data-name="Trazado 5821" d="M2337.945,1712.661a1.762,1.762,0,0,1,3.41-.294l5.536,16.379a16.279,16.279,0,0,1,.207,9.788l-3.579,8.764a15.726,15.726,0,0,0,1.786,12.8c5.755,9.13,18.294,26.031,37.652,36.76a98.837,98.837,0,0,1-18.818,22.226c-13.477-13.039-24.362-29.855-28.926-51.484a7.689,7.689,0,0,1-4.535-8.208Z" transform="translate(-2236.551 -1709.41)" fill="url(#linear-gradient-36)"/>
          <path id="Trazado_5822" data-name="Trazado 5822" d="M2402.868,1993.051c22.553-19.4,61.967-24.874,84.6-26.4a20.477,20.477,0,0,1,21.284,15.464c6.956,27.955,26.232,100.819,30.14,113.411,3.207,10.327,6.63,20.45,8.814,26.781a7.258,7.258,0,0,1-4.45,9.235c-19.674,6.892-54.4,13.281-68.459,15.717a4.7,4.7,0,0,1-5.469-5.167,14.711,14.711,0,0,0-1.233-7.745l-41.869-91.724c-36.149,32.006-64.657,32.091-85.394,21.856a163.768,163.768,0,0,0,10.963-32.959C2384.345,2029.656,2402.868,1993.051,2402.868,1993.051Z" transform="translate(-2243.104 -1872.85)" fill="#5080df"/>
          <path id="Trazado_5823" data-name="Trazado 5823" d="M2226.577,2101.228l6.629-7.031c17.214,14.914,32.467,19.711,45.482,18.962a163.5,163.5,0,0,1-10.962,32.958C2240.406,2132.632,2226.577,2101.228,2226.577,2101.228Z" transform="translate(-2170.001 -1954.486)" fill="url(#linear-gradient-37)"/>
          <path id="Trazado_5824" data-name="Trazado 5824" d="M2130.117,2074.815l-32.611-2.393-28.014-20.071c4.594-2.2,28.241,6.031,28.241,6.031s25.8-.978,32.667-.212c5.7.634,3.964,8.743,3.209,11.474-.152.553-.264.888-.264.888Z" transform="translate(-2069.492 -1927.47)" fill="url(#linear-gradient-38)"/>
          <path id="Trazado_5825" data-name="Trazado 5825" d="M2624.552,1846.685l12.419,43.737s-21.221,11.4-36.911,8.322l-4.312-38.553Z" transform="translate(-2406.209 -1796.117)" fill="url(#linear-gradient-39)"/>
          <g id="Grupo_10121" data-name="Grupo 10121" transform="translate(169.783)">
            <path id="Trazado_5826" data-name="Trazado 5826" d="M2573.483,1755.076c-.456.51-17.345,42.513-17.345,42.513l24.188,9.135,21.921-37.432S2581.1,1746.51,2573.483,1755.076Z" transform="translate(-2550.65 -1736.272)" fill="url(#linear-gradient-40)"/>
            <path id="Trazado_5827" data-name="Trazado 5827" d="M2582.445,1744.237l-10,20.609a3.193,3.193,0,0,1-.48.724c-1.194,1.344-5.639,5.67-9.787.855-3.766-4.372-7.266-8.3-10.792-9.344a3.2,3.2,0,0,0-3.875,1.875,138.091,138.091,0,0,0-6.545,20.446,3.189,3.189,0,0,0,2.193,3.709c4.758,1.471,14.882,4.3,23.56,4.66a3.2,3.2,0,0,0,2.889-1.545c2.957-4.915,12-19.826,15.161-23.59,2.969-3.536,9.178-2.727,11.759-2.2a3.148,3.148,0,0,0,2.43-.5c2.508-1.745,7.428-6.36,2.006-13.166a3.2,3.2,0,0,1,.589-4.573c2.9-2.172,6.2-6.233,2.445-12.151-3.822-6.018-9.786-5.8-13.53-4.9a3.2,3.2,0,0,1-3.669-1.844,2.528,2.528,0,0,0-2.456-1.506,3.153,3.153,0,0,1-2.98-3.588c.462-3.526-.3-8.133-6.215-10.733-10.5-4.613-18.464,5.131-20.019,12.9s10.107,12.119,17.226,12.387c5.412.2,8.8,5.971,10.106,8.723A3.17,3.17,0,0,1,2582.445,1744.237Z" transform="translate(-2540.896 -1706.286)" fill="url(#linear-gradient-41)"/>
            <path id="Trazado_5828" data-name="Trazado 5828" d="M2652.4,1859.59s3.292-13.416,9.03-13.445,10.725,5.248,4.233,12.255C2657.591,1867.114,2652.4,1859.59,2652.4,1859.59Z" transform="translate(-2612.242 -1795.772)" fill="url(#linear-gradient-42)"/>
          </g>
        </g>
        <g id="Grupo_10125" data-name="Grupo 10125" transform="translate(86.132 0)">
          <circle id="Elipse_1123" data-name="Elipse 1123" cx="80.923" cy="80.923" r="80.923" transform="translate(0 114.442) rotate(-45)" fill="url(#linear-gradient-23)"/>
          <circle id="Elipse_1124" data-name="Elipse 1124" cx="78.232" cy="78.232" r="78.232" transform="translate(3.806 114.442) rotate(-45)" fill="url(#linear-gradient-24)"/>
          <path id="Trazado_5829" data-name="Trazado 5829" d="M2104.856,1742.74a1.747,1.747,0,0,1-1.555-2.533,73.651,73.651,0,0,1,66.067-40.679,74.712,74.712,0,0,1,13.342,1.2,1.746,1.746,0,0,1-.627,3.435,71.1,71.1,0,0,0-12.715-1.143,70.182,70.182,0,0,0-62.951,38.76A1.745,1.745,0,0,1,2104.856,1742.74Z" transform="translate(-2054.926 -1659.049)" fill="#fff"/>
          <circle id="Elipse_1125" data-name="Elipse 1125" cx="66.214" cy="66.214" r="66.214" transform="translate(49.933 49.933)" fill="#fff" opacity="0.78"/>
          <g id="Grupo_10124" data-name="Grupo 10124" transform="translate(86.983 69.285)">
            <path id="Trazado_5830" data-name="Trazado 5830" d="M2233.495,1875.592v-7.2a58.8,58.8,0,0,1-20.213-4.383,4.163,4.163,0,0,1-2.3-4.923l1.831-6.709a4.2,4.2,0,0,1,5.7-2.749,48.756,48.756,0,0,0,18.662,3.928c7.233,0,12.626-2.452,12.626-7.477,0-4.536-4.167-7.233-14.219-9.929-14.346-3.924-24.641-10.177-24.641-22.8,0-11.4,8.335-20.1,22.8-22.434v-7.2a4.2,4.2,0,0,1,4.2-4.2h4.231a4.2,4.2,0,0,1,4.2,4.2v6.468a53.619,53.619,0,0,1,16.021,2.876,4.18,4.18,0,0,1,2.611,5.042l-1.685,6.205a4.184,4.184,0,0,1-5.525,2.827,43.727,43.727,0,0,0-15.711-2.852c-8.584,0-11.037,3.554-11.037,6.742,0,3.924,5.151,6.62,16.307,10.054,15.937,4.78,22.558,11.4,22.558,23.293,0,10.91-8.092,20.718-23.782,23.17v8.062a4.2,4.2,0,0,1-4.2,4.2h-4.231A4.2,4.2,0,0,1,2233.495,1875.592Z" transform="translate(-2210.829 -1779.506)" fill="url(#linear-gradient-28)"/>
          </g>
        </g>
      </g>
    </g>
  </g>
</svg>
